<svg width="50" height="18" viewBox="0 0 50 18" fill="none" xmlns="http://www.w3.org/2000/svg">
<rect width="50" height="18" rx="3" fill="#009DFF"/>
<path d="M18.6992 4.45117V13H17.0117V6.39648L14.9844 7.04102V5.71094L18.5176 4.45117H18.6992ZM27.2188 7.98438V9.46094C27.2188 10.1016 27.1504 10.6543 27.0137 11.1191C26.877 11.5801 26.6797 11.959 26.4219 12.2559C26.168 12.5488 25.8652 12.7656 25.5137 12.9062C25.1621 13.0469 24.7715 13.1172 24.3418 13.1172C23.998 13.1172 23.6777 13.0742 23.3809 12.9883C23.084 12.8984 22.8164 12.7598 22.5781 12.5723C22.3438 12.3848 22.1406 12.1484 21.9688 11.8633C21.8008 11.5742 21.6719 11.2305 21.582 10.832C21.4922 10.4336 21.4473 9.97656 21.4473 9.46094V7.98438C21.4473 7.34375 21.5156 6.79492 21.6523 6.33789C21.793 5.87695 21.9902 5.5 22.2441 5.20703C22.502 4.91406 22.8066 4.69922 23.1582 4.5625C23.5098 4.42188 23.9004 4.35156 24.3301 4.35156C24.6738 4.35156 24.9922 4.39648 25.2852 4.48633C25.582 4.57227 25.8496 4.70703 26.0879 4.89062C26.3262 5.07422 26.5293 5.31055 26.6973 5.59961C26.8652 5.88477 26.9941 6.22656 27.084 6.625C27.1738 7.01953 27.2188 7.47266 27.2188 7.98438ZM25.5254 9.68359V7.75586C25.5254 7.44727 25.5078 7.17773 25.4727 6.94727C25.4414 6.7168 25.3926 6.52148 25.3262 6.36133C25.2598 6.19727 25.1777 6.06445 25.0801 5.96289C24.9824 5.86133 24.8711 5.78711 24.7461 5.74023C24.6211 5.69336 24.4824 5.66992 24.3301 5.66992C24.1387 5.66992 23.9688 5.70703 23.8203 5.78125C23.6758 5.85547 23.5527 5.97461 23.4512 6.13867C23.3496 6.29883 23.2715 6.51367 23.2168 6.7832C23.166 7.04883 23.1406 7.37305 23.1406 7.75586V9.68359C23.1406 9.99219 23.1562 10.2637 23.1875 10.498C23.2227 10.7324 23.2734 10.9336 23.3398 11.1016C23.4102 11.2656 23.4922 11.4004 23.5859 11.5059C23.6836 11.6074 23.7949 11.6816 23.9199 11.7285C24.0488 11.7754 24.1895 11.7988 24.3418 11.7988C24.5293 11.7988 24.6953 11.7617 24.8398 11.6875C24.9883 11.6094 25.1133 11.4883 25.2148 11.3242C25.3203 11.1562 25.3984 10.9375 25.4492 10.668C25.5 10.3984 25.5254 10.0703 25.5254 9.68359ZM32.0117 5.92773L29.6914 13H27.8223L30.9922 4.46875H32.1816L32.0117 5.92773ZM33.9395 13L31.6133 5.92773L31.4258 4.46875H32.627L35.8145 13H33.9395ZM33.834 9.82422V11.2012H29.3281V9.82422H33.834Z" fill="white"/>
</svg>
