<svg width="50" height="18" viewBox="0 0 50 18" fill="none" xmlns="http://www.w3.org/2000/svg">
<rect width="50" height="18" rx="3" fill="#FFB039"/>
<path d="M18.6992 4.45117V13H17.0117V6.39648L14.9844 7.04102V5.71094L18.5176 4.45117H18.6992ZM27.3125 11.6816V13H21.4766V11.875L24.2363 8.91602C24.5137 8.60742 24.7324 8.33594 24.8926 8.10156C25.0527 7.86328 25.168 7.65039 25.2383 7.46289C25.3125 7.27148 25.3496 7.08984 25.3496 6.91797C25.3496 6.66016 25.3066 6.43945 25.2207 6.25586C25.1348 6.06836 25.0078 5.92383 24.8398 5.82227C24.6758 5.7207 24.4727 5.66992 24.2305 5.66992C23.9727 5.66992 23.75 5.73242 23.5625 5.85742C23.3789 5.98242 23.2383 6.15625 23.1406 6.37891C23.0469 6.60156 23 6.85352 23 7.13477H21.3066C21.3066 6.62695 21.4277 6.16211 21.6699 5.74023C21.9121 5.31445 22.2539 4.97656 22.6953 4.72656C23.1367 4.47266 23.6602 4.3457 24.2656 4.3457C24.8633 4.3457 25.3672 4.44336 25.7773 4.63867C26.1914 4.83008 26.5039 5.10742 26.7148 5.4707C26.9297 5.83008 27.0371 6.25977 27.0371 6.75977C27.0371 7.04102 26.9922 7.31641 26.9023 7.58594C26.8125 7.85156 26.6836 8.11719 26.5156 8.38281C26.3516 8.64453 26.1523 8.91016 25.918 9.17969C25.6836 9.44922 25.4238 9.72852 25.1387 10.0176L23.6562 11.6816H27.3125ZM32.0117 5.92773L29.6914 13H27.8223L30.9922 4.46875H32.1816L32.0117 5.92773ZM33.9395 13L31.6133 5.92773L31.4258 4.46875H32.627L35.8145 13H33.9395ZM33.834 9.82422V11.2012H29.3281V9.82422H33.834Z" fill="white"/>
</svg>
