<svg width="50" height="18" viewBox="0 0 50 18" fill="none" xmlns="http://www.w3.org/2000/svg">
<rect width="50" height="18" rx="3" fill="#FF8700"/>
<path d="M18.6992 4.45117V13H17.0117V6.39648L14.9844 7.04102V5.71094L18.5176 4.45117H18.6992ZM27.4531 9.8125V11.1367H21.3066L21.2246 10.1113L24.7812 4.46875H26.123L24.6699 6.90039L22.9004 9.8125H27.4531ZM26.4863 4.46875V13H24.7988V4.46875H26.4863ZM32.0117 5.92773L29.6914 13H27.8223L30.9922 4.46875H32.1816L32.0117 5.92773ZM33.9395 13L31.6133 5.92773L31.4258 4.46875H32.627L35.8145 13H33.9395ZM33.834 9.82422V11.2012H29.3281V9.82422H33.834Z" fill="white"/>
</svg>
