<svg width="50" height="18" viewBox="0 0 50 18" fill="none" xmlns="http://www.w3.org/2000/svg">
<rect width="50" height="18" rx="3" fill="#FF0006"/>
<path d="M18.6992 4.45117V13H17.0117V6.39648L14.9844 7.04102V5.71094L18.5176 4.45117H18.6992ZM25.8301 4.38086H26.0762V5.72852H25.9766C25.5312 5.72852 25.1348 5.79492 24.7871 5.92773C24.4395 6.06055 24.1445 6.25 23.9023 6.49609C23.6641 6.73828 23.4805 7.03125 23.3516 7.375C23.2266 7.71875 23.1641 8.10352 23.1641 8.5293V9.94727C23.1641 10.252 23.1934 10.5215 23.252 10.7559C23.3145 10.9863 23.4023 11.1797 23.5156 11.3359C23.6328 11.4883 23.7695 11.6035 23.9258 11.6816C24.082 11.7559 24.2578 11.793 24.4531 11.793C24.6367 11.793 24.8027 11.7539 24.9512 11.6758C25.1035 11.5977 25.2324 11.4883 25.3379 11.3477C25.4473 11.2031 25.5293 11.0352 25.584 10.8438C25.6426 10.6484 25.6719 10.4355 25.6719 10.2051C25.6719 9.97461 25.6426 9.76172 25.584 9.56641C25.5293 9.37109 25.4473 9.20312 25.3379 9.0625C25.2285 8.91797 25.0957 8.80664 24.9395 8.72852C24.7832 8.65039 24.6074 8.61133 24.4121 8.61133C24.1465 8.61133 23.9121 8.67383 23.709 8.79883C23.5098 8.91992 23.3535 9.07617 23.2402 9.26758C23.127 9.45898 23.0664 9.66016 23.0586 9.87109L22.5488 9.54297C22.5605 9.24219 22.623 8.95703 22.7363 8.6875C22.8535 8.41797 23.0137 8.17969 23.2168 7.97266C23.4238 7.76172 23.6719 7.59766 23.9609 7.48047C24.25 7.35938 24.5762 7.29883 24.9395 7.29883C25.3379 7.29883 25.6875 7.375 25.9883 7.52734C26.293 7.67969 26.5469 7.88867 26.75 8.1543C26.9531 8.41992 27.1055 8.72656 27.207 9.07422C27.3086 9.42188 27.3594 9.79297 27.3594 10.1875C27.3594 10.6016 27.291 10.9863 27.1543 11.3418C27.0215 11.6973 26.8281 12.0078 26.5742 12.2734C26.3242 12.5391 26.0234 12.7461 25.6719 12.8945C25.3203 13.043 24.9258 13.1172 24.4883 13.1172C24.0352 13.1172 23.623 13.0352 23.252 12.8711C22.8848 12.7031 22.5684 12.4688 22.3027 12.168C22.0371 11.8672 21.832 11.5098 21.6875 11.0957C21.5469 10.6816 21.4766 10.2285 21.4766 9.73633V9.08008C21.4766 8.39258 21.5762 7.76367 21.7754 7.19336C21.9785 6.61914 22.2695 6.12305 22.6484 5.70508C23.0273 5.2832 23.4844 4.95703 24.0195 4.72656C24.5547 4.49609 25.1582 4.38086 25.8301 4.38086ZM32.0117 5.92773L29.6914 13H27.8223L30.9922 4.46875H32.1816L32.0117 5.92773ZM33.9395 13L31.6133 5.92773L31.4258 4.46875H32.627L35.8145 13H33.9395ZM33.834 9.82422V11.2012H29.3281V9.82422H33.834Z" fill="white"/>
</svg>
