<svg width="50" height="18" viewBox="0 0 50 18" fill="none" xmlns="http://www.w3.org/2000/svg">
<rect width="50" height="18" rx="3" fill="black"/>
<path d="M18.6992 4.45117V13H17.0117V6.39648L14.9844 7.04102V5.71094L18.5176 4.45117H18.6992ZM27.2246 10.6621C27.2246 11.1973 27.0996 11.6484 26.8496 12.0156C26.5996 12.3789 26.2559 12.6543 25.8184 12.8418C25.3848 13.0254 24.8926 13.1172 24.3418 13.1172C23.791 13.1172 23.2969 13.0254 22.8594 12.8418C22.4219 12.6543 22.0762 12.3789 21.8223 12.0156C21.5684 11.6484 21.4414 11.1973 21.4414 10.6621C21.4414 10.3027 21.5137 9.97852 21.6582 9.68945C21.8027 9.39648 22.0039 9.14648 22.2617 8.93945C22.5234 8.72852 22.8301 8.56836 23.1816 8.45898C23.5332 8.3457 23.916 8.28906 24.3301 8.28906C24.8848 8.28906 25.3809 8.38672 25.8184 8.58203C26.2559 8.77734 26.5996 9.05273 26.8496 9.4082C27.0996 9.76367 27.2246 10.1816 27.2246 10.6621ZM25.5254 10.5508C25.5254 10.2891 25.4746 10.0645 25.373 9.87695C25.2754 9.68555 25.1367 9.53906 24.957 9.4375C24.7773 9.33594 24.5684 9.28516 24.3301 9.28516C24.0918 9.28516 23.8828 9.33594 23.7031 9.4375C23.5234 9.53906 23.3828 9.68555 23.2812 9.87695C23.1836 10.0645 23.1348 10.2891 23.1348 10.5508C23.1348 10.8086 23.1836 11.0312 23.2812 11.2188C23.3828 11.4062 23.5234 11.5508 23.7031 11.6523C23.8867 11.75 24.0996 11.7988 24.3418 11.7988C24.584 11.7988 24.793 11.75 24.9688 11.6523C25.1484 11.5508 25.2852 11.4062 25.3789 11.2188C25.4766 11.0312 25.5254 10.8086 25.5254 10.5508ZM27.043 6.73047C27.043 7.16406 26.9277 7.54883 26.6973 7.88477C26.4668 8.2168 26.1465 8.47656 25.7363 8.66406C25.3301 8.85156 24.8652 8.94531 24.3418 8.94531C23.8145 8.94531 23.3457 8.85156 22.9355 8.66406C22.5254 8.47656 22.2051 8.2168 21.9746 7.88477C21.7441 7.54883 21.6289 7.16406 21.6289 6.73047C21.6289 6.21484 21.7441 5.78125 21.9746 5.42969C22.209 5.07422 22.5293 4.80469 22.9355 4.62109C23.3457 4.4375 23.8105 4.3457 24.3301 4.3457C24.8574 4.3457 25.3242 4.4375 25.7305 4.62109C26.1406 4.80469 26.4609 5.07422 26.6914 5.42969C26.9258 5.78125 27.043 6.21484 27.043 6.73047ZM25.3555 6.80664C25.3555 6.57617 25.3145 6.37695 25.2324 6.20898C25.1504 6.03711 25.0332 5.9043 24.8809 5.81055C24.7324 5.7168 24.5488 5.66992 24.3301 5.66992C24.1191 5.66992 23.9375 5.71484 23.7852 5.80469C23.6367 5.89453 23.5215 6.02539 23.4395 6.19727C23.3613 6.36523 23.3223 6.56836 23.3223 6.80664C23.3223 7.03711 23.3613 7.24023 23.4395 7.41602C23.5215 7.58789 23.6387 7.72266 23.791 7.82031C23.9434 7.91797 24.127 7.9668 24.3418 7.9668C24.5566 7.9668 24.7383 7.91797 24.8867 7.82031C25.0391 7.72266 25.1543 7.58789 25.2324 7.41602C25.3145 7.24023 25.3555 7.03711 25.3555 6.80664ZM32.0117 5.92773L29.6914 13H27.8223L30.9922 4.46875H32.1816L32.0117 5.92773ZM33.9395 13L31.6133 5.92773L31.4258 4.46875H32.627L35.8145 13H33.9395ZM33.834 9.82422V11.2012H29.3281V9.82422H33.834Z" fill="white"/>
</svg>
