<svg width="500" height="500" viewBox="0 0 500 500" fill="none" xmlns="http://www.w3.org/2000/svg">
<path d="M417.66 464.58L275.66 464.5C267.458 464.495 259.593 461.233 253.795 455.431C247.997 449.629 244.74 441.762 244.74 433.56L244.81 77.56C244.829 69.3504 248.103 61.4834 253.914 55.6849C259.726 49.8864 267.6 46.63 275.81 46.63L417.81 46.72C426.012 46.7253 433.877 49.9874 439.675 55.7892C445.473 61.591 448.73 69.4577 448.73 77.66L448.66 433.66C448.66 437.727 447.858 441.754 446.299 445.511C444.74 449.268 442.455 452.68 439.575 455.552C436.696 458.424 433.278 460.7 429.517 462.249C425.757 463.799 421.727 464.591 417.66 464.58Z" fill="#455A64"/>
<path d="M417.61 59.27H390.08C388.265 59.312 386.541 60.0728 385.286 61.3854C384.032 62.698 383.35 64.4549 383.39 66.27V71.27C383.43 73.0852 382.748 74.8421 381.494 76.1546C380.239 77.4672 378.515 78.2281 376.7 78.27H323.03C321.217 78.2255 319.495 77.4635 318.243 76.1512C316.99 74.8389 316.31 73.0835 316.35 71.27V66.27C316.39 64.4549 315.708 62.698 314.454 61.3854C313.199 60.0728 311.475 59.312 309.66 59.27H275.88C270.146 59.2647 264.643 61.5334 260.579 65.5787C256.515 69.624 254.221 75.1158 254.2 80.85L254.13 428.37C254.141 434.109 256.427 439.609 260.488 443.664C264.548 447.719 270.051 449.997 275.79 450L417.52 450.08C420.366 450.081 423.184 449.522 425.814 448.434C428.443 447.347 430.833 445.751 432.846 443.74C434.859 441.729 436.456 439.341 437.547 436.712C438.637 434.083 439.199 431.266 439.2 428.42L439.26 80.9C439.252 75.1624 436.968 69.6623 432.909 65.607C428.85 61.5518 423.348 59.2727 417.61 59.27Z" fill="white"/>
<path d="M439.05 132.04V80.27C438.948 74.5967 436.624 69.1901 432.577 65.2126C428.53 61.2351 423.084 59.0043 417.41 59H389.88C388.981 59.0195 388.094 59.2161 387.271 59.5786C386.448 59.9411 385.705 60.4623 385.083 61.1125C384.462 61.7627 383.975 62.5291 383.65 63.3677C383.325 64.2064 383.169 65.1009 383.19 66V71C383.23 72.8152 382.548 74.5721 381.294 75.8846C380.039 77.1972 378.315 77.958 376.5 78H322.83C321.017 77.9554 319.295 77.1934 318.043 75.8812C316.79 74.5689 316.11 72.8135 316.15 71V66C316.19 64.1848 315.508 62.428 314.254 61.1154C312.999 59.8028 311.275 59.042 309.46 59H275.68C269.946 58.9947 264.443 61.2634 260.379 65.3087C256.315 69.354 254.021 74.8458 254 80.58V132.2H439.05V132.04Z" fill="#EBEBEB"/>
<path d="M291.94 202.53C304.328 202.53 314.37 192.51 314.37 180.15C314.37 167.79 304.328 157.77 291.94 157.77C279.552 157.77 269.51 167.79 269.51 180.15C269.51 192.51 279.552 202.53 291.94 202.53Z" fill="#E0E0E0"/>
<path d="M281.46 185.75L287.34 185.25L301.68 187.67L303.37 198.46L303.13 199.72C299.9 201.543 296.27 202.542 292.561 202.627C288.853 202.713 285.181 201.882 281.87 200.21L281.46 185.75Z" fill="#455A64"/>
<path d="M298.61 187.5C300.032 187.292 301.484 187.489 302.799 188.067C304.115 188.645 305.241 189.582 306.05 190.77C307.022 192.127 307.913 193.539 308.72 195C306.38 197.54 304.48 199.47 301.24 200.6L298.61 187.5Z" fill="#455A64"/>
<path d="M281.46 185.75C281.46 185.75 277.58 186.23 276.08 189.54C274.58 192.85 274.23 193.88 274.23 193.88C276.23 196.3 278.79 199.16 281.92 200.23C281.92 200.23 282.63 191.89 282.72 189.54C282.83 187 282.93 185.68 281.46 185.75Z" fill="#455A64"/>
<path d="M285 164.55C285.977 163.298 287.223 162.281 288.646 161.575C290.069 160.869 291.632 160.491 293.22 160.47C294.586 160.47 295.94 160.714 297.22 161.19C298.567 161.509 299.758 162.296 300.58 163.41C301.6 164.72 302.267 166.269 302.52 167.91C302.755 169.589 302.835 171.286 302.76 172.98C302.678 174.686 302.128 176.336 301.17 177.75L296.86 178.49C294.484 178.68 292.093 178.552 289.75 178.11C287.382 177.655 285.289 176.282 283.93 174.29C282.2 171.48 282.92 167.11 285 164.55Z" fill="#263238"/>
<path d="M280.84 177C280.884 176.512 281.038 176.041 281.291 175.622C281.544 175.203 281.889 174.846 282.3 174.58C282.721 174.327 283.21 174.214 283.699 174.257C284.188 174.301 284.65 174.498 285.02 174.82L285.7 175.62C286.225 175.862 286.661 176.262 286.948 176.764C287.234 177.266 287.357 177.845 287.3 178.42C287.225 178.996 286.985 179.537 286.609 179.979C286.233 180.421 285.736 180.745 285.18 180.91C284.624 181.068 284.036 181.08 283.474 180.945C282.912 180.81 282.394 180.533 281.97 180.14C281.554 179.738 281.236 179.246 281.04 178.701C280.844 178.157 280.775 177.575 280.84 177Z" fill="#263238"/>
<path d="M281.69 179.94C281.528 179.687 281.448 179.39 281.46 179.09C281.604 178.362 281.951 177.69 282.46 177.15C282.943 176.583 283.53 176.115 284.19 175.77C284.69 175.5 285.04 175.4 285.03 175.37C284.711 175.393 284.4 175.485 284.12 175.64C283.415 175.953 282.792 176.426 282.3 177.02C282.024 177.321 281.789 177.658 281.6 178.02C281.436 178.33 281.341 178.67 281.32 179.02C281.316 179.26 281.382 179.497 281.51 179.7C281.6 179.9 281.69 180 281.69 179.94Z" fill="#455A64"/>
<path d="M296.82 186.73V182.73C296.82 182.73 300.33 182.34 301.31 177.84C301.771 174.863 301.951 171.85 301.85 168.84C301.85 166.11 299.5 162.39 296.12 162.38L294.62 162.2L288.87 164.48C288.471 164.502 288.094 164.672 287.813 164.957C287.532 165.241 287.367 165.62 287.35 166.02L287.18 185.23L289.81 188.92C290.291 189.572 290.965 190.056 291.736 190.306C292.507 190.555 293.336 190.557 294.108 190.311C294.881 190.065 295.556 189.584 296.041 188.934C296.525 188.285 296.794 187.5 296.81 186.69L296.82 186.73Z" fill="#FFBE9D"/>
<path d="M294.53 176.8C294.561 176.569 294.679 176.358 294.86 176.21C295.025 176.072 295.229 175.991 295.443 175.978C295.658 175.966 295.87 176.022 296.05 176.14C296.234 176.283 296.377 176.472 296.464 176.688C296.552 176.904 296.582 177.139 296.55 177.37C296.45 177.509 296.321 177.625 296.173 177.712C296.025 177.798 295.86 177.852 295.69 177.87H295.53C295.397 177.873 295.265 177.85 295.142 177.802C295.018 177.754 294.905 177.682 294.81 177.59C294.709 177.486 294.632 177.362 294.583 177.226C294.535 177.089 294.517 176.944 294.53 176.8Z" fill="#EB996E"/>
<path d="M299.76 172C299.755 172.152 299.69 172.296 299.58 172.401C299.469 172.506 299.322 172.563 299.17 172.56C299.095 172.561 299.021 172.548 298.951 172.52C298.881 172.493 298.818 172.452 298.764 172.4C298.71 172.348 298.667 172.286 298.637 172.217C298.607 172.149 298.591 172.075 298.59 172C298.598 171.847 298.665 171.703 298.777 171.599C298.889 171.494 299.037 171.437 299.19 171.44C299.264 171.439 299.338 171.452 299.407 171.48C299.476 171.507 299.539 171.548 299.592 171.6C299.646 171.653 299.688 171.715 299.716 171.783C299.745 171.852 299.76 171.926 299.76 172Z" fill="#263238"/>
<path d="M300.72 170.56C300.64 170.63 300.21 170.28 299.59 170.25C298.97 170.22 298.48 170.51 298.42 170.43C298.36 170.35 298.47 170.26 298.68 170.12C298.963 169.951 299.291 169.871 299.62 169.89C299.946 169.903 300.259 170.022 300.51 170.23C300.69 170.39 300.75 170.53 300.72 170.56Z" fill="#263238"/>
<path d="M296.77 175.3C297.098 175.223 297.433 175.183 297.77 175.18C297.93 175.18 298.09 175.18 298.12 175.04C298.143 174.876 298.115 174.708 298.04 174.56L297.63 173.32C297.248 172.262 296.95 171.175 296.74 170.07C297.207 171.094 297.592 172.154 297.89 173.24C298.03 173.67 298.15 174.09 298.28 174.49C298.364 174.689 298.382 174.91 298.33 175.12C298.269 175.227 298.169 175.306 298.05 175.34C297.96 175.349 297.87 175.349 297.78 175.34C297.443 175.372 297.103 175.359 296.77 175.3Z" fill="#263238"/>
<path d="M296.8 182.74C294.653 182.644 292.575 181.951 290.8 180.74C290.8 180.74 292.25 183.97 296.8 183.8V182.74Z" fill="#EB996E"/>
<path d="M294.9 175.64C295.01 175.64 294.97 176.32 295.53 176.83C296.09 177.34 296.81 177.31 296.81 177.4C296.81 177.49 296.64 177.53 296.34 177.52C295.94 177.502 295.559 177.347 295.26 177.08C294.978 176.82 294.806 176.462 294.78 176.08C294.77 175.79 294.86 175.63 294.9 175.64Z" fill="#263238"/>
<path d="M300.59 168.2C300.48 168.35 300 168.2 299.44 168.2C298.88 168.2 298.44 168.34 298.29 168.2C298.14 168.06 298.29 167.98 298.51 167.84C298.786 167.667 299.104 167.573 299.43 167.57C299.758 167.561 300.081 167.648 300.36 167.82C300.57 168 300.64 168.13 300.59 168.2Z" fill="#263238"/>
<path d="M292.88 172C292.877 172.153 292.934 172.301 293.039 172.413C293.143 172.525 293.287 172.592 293.44 172.6C293.514 172.607 293.589 172.599 293.661 172.576C293.732 172.554 293.798 172.517 293.855 172.469C293.911 172.42 293.958 172.361 293.992 172.294C294.025 172.227 294.045 172.155 294.05 172.08C294.05 171.929 293.992 171.783 293.888 171.673C293.784 171.563 293.641 171.498 293.49 171.49C293.416 171.482 293.341 171.488 293.27 171.51C293.199 171.531 293.133 171.567 293.076 171.615C293.019 171.662 292.972 171.721 292.939 171.787C292.905 171.853 292.885 171.926 292.88 172Z" fill="#263238"/>
<path d="M292.12 170.34C292.19 170.42 292.64 170.1 293.27 170.11C293.9 170.12 294.35 170.44 294.42 170.37C294.49 170.3 294.42 170.2 294.18 170.05C293.913 169.854 293.591 169.749 293.26 169.75C292.936 169.74 292.616 169.835 292.35 170.02C292.15 170.17 292.08 170.3 292.12 170.34Z" fill="#263238"/>
<path d="M291.76 169C291.88 169.15 292.37 169 292.95 169C293.53 169 294.02 169.12 294.14 169C294.26 168.88 294.14 168.78 293.9 168.64C293.609 168.47 293.277 168.38 292.94 168.38C292.603 168.38 292.271 168.47 291.98 168.64C291.77 168.78 291.7 168.92 291.76 169Z" fill="#263238"/>
<path d="M288.11 173.69C288.11 173.35 287.79 172.53 287.45 172.46C286.57 172.27 284.96 172.26 284.82 174.52C284.63 177.61 287.82 177.16 287.82 177.07C287.82 176.98 288.05 174.85 288.11 173.69Z" fill="#FFBE9D"/>
<path d="M287 175.89C287 175.89 286.95 175.89 286.85 175.96C286.787 175.987 286.719 176.001 286.65 176.001C286.581 176.001 286.513 175.987 286.45 175.96C286.256 175.821 286.103 175.633 286.006 175.415C285.91 175.197 285.873 174.957 285.9 174.72C285.912 174.455 285.98 174.196 286.1 173.96C286.136 173.866 286.194 173.781 286.268 173.713C286.343 173.646 286.433 173.597 286.53 173.57C286.593 173.556 286.66 173.566 286.717 173.597C286.774 173.628 286.817 173.679 286.84 173.74C286.847 173.79 286.847 173.84 286.84 173.89C286.84 173.89 286.91 173.89 286.89 173.72C286.877 173.643 286.839 173.572 286.78 173.52C286.742 173.483 286.696 173.455 286.646 173.438C286.596 173.42 286.543 173.414 286.49 173.42C286.362 173.436 286.241 173.486 286.137 173.563C286.034 173.64 285.952 173.742 285.9 173.86C285.752 174.119 285.669 174.411 285.66 174.71C285.626 174.985 285.674 175.264 285.799 175.511C285.924 175.759 286.119 175.964 286.36 176.1C286.442 176.128 286.529 176.138 286.615 176.129C286.702 176.12 286.785 176.093 286.86 176.05C287 176 287 175.9 287 175.89Z" fill="#EB996E"/>
<path d="M287.33 172.47L288.11 173.28C291.51 170.04 298.16 161.91 297.79 162.39C296.238 161.817 294.568 161.639 292.93 161.87C290.4 162.3 285.61 163.56 285.68 166.53C285.829 168.6 286.39 170.62 287.33 172.47Z" fill="#263238"/>
<path d="M282.83 171.79C282.83 171.79 282.83 171.72 282.83 171.61C282.889 171.442 282.959 171.278 283.04 171.12C283.361 170.547 283.805 170.052 284.34 169.67C285.132 169.105 286.015 168.679 286.95 168.41C287.95 168.08 289.15 167.82 290.3 167.33C292.268 166.499 294.044 165.274 295.52 163.73C295.964 163.261 296.382 162.767 296.77 162.25L297.08 161.82C297.114 161.768 297.154 161.721 297.2 161.68L297.11 161.84C297.04 161.94 296.95 162.1 296.82 162.29C296.447 162.823 296.04 163.331 295.6 163.81C294.943 164.517 294.219 165.16 293.44 165.73C292.486 166.431 291.452 167.015 290.36 167.47C289.258 167.893 288.133 168.253 286.99 168.55C286.069 168.807 285.197 169.216 284.41 169.76C283.88 170.125 283.433 170.599 283.1 171.15C282.994 171.356 282.904 171.57 282.83 171.79Z" fill="#455A64"/>
<path d="M283.73 172.27C283.722 172.041 283.763 171.812 283.85 171.6C284.081 171.008 284.485 170.499 285.01 170.14C285.798 169.637 286.679 169.297 287.6 169.14C288.704 168.929 289.781 168.594 290.81 168.14C291.833 167.675 292.794 167.084 293.67 166.38C294.397 165.802 295.067 165.156 295.67 164.45C296.067 163.976 296.431 163.474 296.76 162.95C296.87 162.78 296.96 162.63 297.02 162.52C297.051 162.466 297.088 162.416 297.13 162.37C297.109 162.426 297.082 162.479 297.05 162.53L296.81 162.98C296.503 163.524 296.148 164.039 295.75 164.52C295.159 165.258 294.488 165.929 293.75 166.52C292.866 167.238 291.895 167.843 290.86 168.32C289.819 168.778 288.728 169.113 287.61 169.32C286.705 169.49 285.839 169.829 285.06 170.32C284.542 170.658 284.135 171.142 283.89 171.71C283.82 171.892 283.767 172.079 283.73 172.27Z" fill="#455A64"/>
<path d="M281.92 200.21C281.773 198.239 281.773 196.261 281.92 194.29C282.053 196.261 282.053 198.239 281.92 200.21Z" fill="#263238"/>
<path d="M303.14 199.79C303.114 199.457 303.114 199.123 303.14 198.79C303.2 197.956 303.17 197.118 303.05 196.29C302.894 195.464 302.653 194.656 302.33 193.88C302.179 193.559 302.058 193.224 301.97 192.88C302.166 193.172 302.33 193.484 302.46 193.81C302.83 194.581 303.096 195.398 303.25 196.24C303.369 197.086 303.369 197.944 303.25 198.79C303.256 199.127 303.219 199.463 303.14 199.79Z" fill="#263238"/>
<path d="M411.08 208.57H334.63C332.809 208.567 331.063 207.843 329.775 206.555C328.487 205.267 327.763 203.521 327.76 201.7V169.6L319.33 162.12H411.08C411.987 162.113 412.887 162.287 413.727 162.629C414.567 162.972 415.33 163.478 415.974 164.118C416.617 164.758 417.127 165.518 417.475 166.356C417.823 167.194 418.001 168.093 418 169V201.7C417.999 202.606 417.818 203.503 417.47 204.339C417.121 205.175 416.61 205.934 415.967 206.573C415.324 207.211 414.562 207.716 413.723 208.059C412.884 208.402 411.986 208.575 411.08 208.57Z" fill="#EBEBEB"/>
<path d="M405.84 213.77C403.128 214.028 400.403 214.114 397.68 214.03C394.961 214.114 392.239 214.027 389.53 213.77C392.239 213.513 394.961 213.426 397.68 213.51C400.403 213.426 403.128 213.512 405.84 213.77Z" fill="#E0E0E0"/>
<path d="M409.21 214.41C409.176 214.41 409.143 214.402 409.112 214.388C409.081 214.375 409.053 214.355 409.03 214.33L407.45 212.68C407.404 212.633 407.379 212.57 407.379 212.505C407.379 212.44 407.404 212.377 407.45 212.33C407.472 212.306 407.5 212.287 407.53 212.274C407.56 212.261 407.592 212.254 407.625 212.254C407.658 212.254 407.69 212.261 407.72 212.274C407.75 212.287 407.778 212.306 407.8 212.33L409.2 213.79L412.27 210.67C412.292 210.646 412.32 210.627 412.35 210.614C412.38 210.601 412.412 210.594 412.445 210.594C412.478 210.594 412.51 210.601 412.54 210.614C412.57 210.627 412.598 210.646 412.62 210.67C412.666 210.717 412.691 210.78 412.691 210.845C412.691 210.91 412.666 210.973 412.62 211.02L409.37 214.33C409.326 214.373 409.27 214.401 409.21 214.41Z" fill="#FFBB38"/>
<path d="M411.46 214.36H411.17C411.104 214.36 411.04 214.334 410.993 214.287C410.946 214.24 410.92 214.176 410.92 214.11C410.927 214.044 410.957 213.983 411.004 213.938C411.052 213.892 411.114 213.864 411.18 213.86H411.36L414.53 210.63C414.553 210.606 414.581 210.587 414.612 210.573C414.643 210.56 414.676 210.553 414.71 210.553C414.744 210.553 414.777 210.56 414.808 210.573C414.839 210.587 414.867 210.606 414.89 210.63C414.936 210.677 414.961 210.74 414.961 210.805C414.961 210.87 414.936 210.933 414.89 210.98L411.64 214.28C411.618 214.306 411.59 214.326 411.559 214.34C411.528 214.354 411.494 214.361 411.46 214.36Z" fill="#FFBB38"/>
<path d="M405.84 339.44C403.128 339.698 400.403 339.784 397.68 339.7C394.961 339.784 392.239 339.697 389.53 339.44C392.239 339.183 394.961 339.096 397.68 339.18C400.403 339.096 403.128 339.182 405.84 339.44Z" fill="#E0E0E0"/>
<path d="M409.21 340.08C409.171 340.084 409.132 340.079 409.095 340.065C409.059 340.051 409.026 340.029 409 340L407.42 338.35C407.392 338.328 407.369 338.3 407.353 338.268C407.337 338.236 407.328 338.201 407.326 338.165C407.325 338.129 407.331 338.094 407.345 338.061C407.358 338.027 407.379 337.998 407.405 337.973C407.431 337.949 407.462 337.93 407.495 337.918C407.529 337.907 407.565 337.903 407.601 337.906C407.636 337.91 407.671 337.921 407.702 337.939C407.733 337.956 407.759 337.981 407.78 338.01L409.18 339.47L412.25 336.35C412.272 336.326 412.3 336.307 412.33 336.294C412.36 336.281 412.392 336.274 412.425 336.274C412.458 336.274 412.49 336.281 412.52 336.294C412.55 336.307 412.578 336.326 412.6 336.35C412.646 336.397 412.671 336.46 412.671 336.525C412.671 336.59 412.646 336.653 412.6 336.7L409.39 340C409.341 340.047 409.277 340.075 409.21 340.08Z" fill="#FFBB38"/>
<path d="M411.46 340H411.17C411.103 339.997 411.039 339.969 410.993 339.92C410.946 339.872 410.92 339.807 410.92 339.74C410.92 339.707 410.927 339.674 410.94 339.643C410.953 339.613 410.973 339.585 410.997 339.563C411.022 339.54 411.051 339.523 411.082 339.512C411.113 339.501 411.147 339.497 411.18 339.5H411.36L414.53 336.27C414.553 336.246 414.581 336.227 414.612 336.213C414.643 336.2 414.676 336.193 414.71 336.193C414.744 336.193 414.777 336.2 414.808 336.213C414.839 336.227 414.867 336.246 414.89 336.27C414.936 336.317 414.961 336.38 414.961 336.445C414.961 336.51 414.936 336.573 414.89 336.62L411.64 339.92C411.618 339.946 411.59 339.966 411.559 339.98C411.528 339.994 411.494 340.001 411.46 340Z" fill="#FFBB38"/>
<path d="M410.1 171.31C410.1 171.45 393.41 171.57 372.82 171.57C352.23 171.57 335.55 171.45 335.55 171.31C335.55 171.17 352.23 171.05 372.82 171.05C393.41 171.05 410.1 171.16 410.1 171.31Z" fill="white"/>
<path d="M410.1 176.78C410.1 176.93 393.41 177.04 372.82 177.04C352.23 177.04 335.55 176.93 335.55 176.78C335.55 176.63 352.23 176.52 372.82 176.52C393.41 176.52 410.1 176.64 410.1 176.78Z" fill="white"/>
<path d="M410.1 182.26C410.1 182.4 393.41 182.52 372.82 182.52C352.23 182.52 335.55 182.4 335.55 182.26C335.55 182.12 352.23 182 372.82 182C393.41 182 410.1 182.12 410.1 182.26Z" fill="white"/>
<path d="M291.94 342.1C304.328 342.1 314.37 332.08 314.37 319.72C314.37 307.36 304.328 297.34 291.94 297.34C279.552 297.34 269.51 307.36 269.51 319.72C269.51 332.08 279.552 342.1 291.94 342.1Z" fill="#E0E0E0"/>
<path d="M281.46 325.32L287.34 324.82L301.68 327.24L303.37 338L303.13 339.25C299.901 341.076 296.27 342.076 292.561 342.161C288.853 342.247 285.18 341.415 281.87 339.74L281.46 325.29" fill="#455A64"/>
<path d="M298.61 327.06C300.032 326.855 301.483 327.052 302.798 327.63C304.113 328.208 305.24 329.144 306.05 330.33C307.023 331.689 307.915 333.105 308.72 334.57C306.38 337.11 304.48 339.04 301.24 340.16L298.61 327.06Z" fill="#455A64"/>
<path d="M281.46 325.32C281.46 325.32 277.58 325.79 276.08 329.1C274.58 332.41 274.23 333.45 274.23 333.45C276.23 335.86 278.79 338.72 281.92 339.79C281.92 339.79 282.63 331.46 282.72 329.1C282.83 326.52 282.93 325.24 281.46 325.32Z" fill="#455A64"/>
<path d="M285 304.12C285.976 302.866 287.222 301.849 288.645 301.142C290.068 300.436 291.631 300.059 293.22 300.04C294.585 300.032 295.941 300.273 297.22 300.75C298.564 301.076 299.753 301.861 300.58 302.97C301.598 304.281 302.265 305.83 302.52 307.47C302.754 309.152 302.835 310.853 302.76 312.55C302.68 314.253 302.129 315.901 301.17 317.31L296.86 318.06C294.484 318.245 292.093 318.117 289.75 317.68C287.382 317.225 285.289 315.852 283.93 313.86C282.2 311 282.92 306.67 285 304.12Z" fill="#263238"/>
<path d="M280.84 316.61C280.883 316.122 281.036 315.65 281.289 315.231C281.542 314.811 281.888 314.455 282.3 314.19C282.719 313.934 283.209 313.819 283.698 313.86C284.187 313.902 284.65 314.098 285.02 314.42L285.7 315.23C286.226 315.471 286.663 315.871 286.949 316.373C287.236 316.875 287.359 317.455 287.3 318.03C287.218 318.603 286.976 319.141 286.601 319.582C286.225 320.023 285.733 320.348 285.18 320.52C284.623 320.675 284.035 320.685 283.473 320.549C282.911 320.412 282.394 320.134 281.97 319.74C281.554 319.34 281.236 318.85 281.04 318.307C280.844 317.764 280.776 317.183 280.84 316.61Z" fill="#263238"/>
<path d="M281.69 319.51C281.53 319.252 281.45 318.953 281.46 318.65C281.604 317.925 281.951 317.256 282.46 316.72C282.94 316.15 283.528 315.681 284.19 315.34C284.69 315.07 285.04 314.97 285.03 314.93C284.712 314.959 284.403 315.051 284.12 315.2C283.419 315.52 282.797 315.991 282.3 316.58C282.023 316.902 281.787 317.258 281.6 317.64C281.435 317.949 281.34 318.29 281.32 318.64C281.317 318.88 281.383 319.116 281.51 319.32C281.6 319.47 281.69 319.52 281.69 319.51Z" fill="#455A64"/>
<path d="M296.84 326.66V322.66C296.84 322.66 300.35 322.27 301.33 317.78C301.79 314.803 301.971 311.79 301.87 308.78C301.87 306.05 299.52 302.33 296.14 302.32L294.64 302.15L288.89 304.43C288.49 304.45 288.112 304.619 287.83 304.904C287.549 305.189 287.385 305.57 287.37 305.97L287.2 325.17L289.83 328.86C290.311 329.512 290.985 329.996 291.756 330.246C292.527 330.495 293.356 330.497 294.128 330.251C294.901 330.005 295.576 329.524 296.061 328.875C296.545 328.225 296.814 327.44 296.83 326.63L296.84 326.66Z" fill="#FFBE9D"/>
<path d="M294.53 316.37C294.561 316.139 294.679 315.928 294.86 315.78C295.025 315.642 295.229 315.561 295.443 315.548C295.658 315.536 295.87 315.592 296.05 315.71C296.234 315.853 296.377 316.042 296.464 316.258C296.552 316.474 296.582 316.709 296.55 316.94C296.449 317.078 296.321 317.192 296.172 317.277C296.024 317.361 295.86 317.414 295.69 317.43H295.53C295.263 317.424 295.007 317.321 294.81 317.14C294.708 317.042 294.629 316.921 294.581 316.787C294.532 316.654 294.515 316.511 294.53 316.37Z" fill="#EB996E"/>
<path d="M299.76 312C299.741 312.142 299.672 312.272 299.564 312.367C299.457 312.461 299.318 312.513 299.175 312.513C299.032 312.513 298.893 312.461 298.786 312.367C298.678 312.272 298.609 312.142 298.59 312C298.598 311.847 298.665 311.703 298.777 311.599C298.889 311.494 299.037 311.437 299.19 311.44C299.264 311.439 299.338 311.452 299.407 311.48C299.476 311.507 299.539 311.548 299.592 311.6C299.646 311.653 299.688 311.715 299.716 311.783C299.745 311.852 299.76 311.926 299.76 312Z" fill="#263238"/>
<path d="M300.72 310.51C300.64 310.58 300.21 310.23 299.59 310.2C298.97 310.17 298.48 310.45 298.42 310.37C298.36 310.29 298.47 310.2 298.68 310.07C298.96 309.892 299.29 309.811 299.62 309.84C299.946 309.853 300.259 309.972 300.51 310.18C300.69 310.34 300.75 310.48 300.72 310.51Z" fill="#263238"/>
<path d="M296.77 315.25C297.098 315.172 297.433 315.128 297.77 315.12C297.93 315.12 298.09 315.12 298.12 314.98C298.142 314.816 298.114 314.648 298.04 314.5C297.91 314.11 297.77 313.7 297.63 313.26C297.25 312.205 296.952 311.121 296.74 310.02C297.209 311.04 297.593 312.097 297.89 313.18C298.03 313.62 298.15 314.03 298.28 314.43C298.364 314.629 298.382 314.85 298.33 315.06C298.303 315.115 298.264 315.164 298.215 315.202C298.167 315.24 298.11 315.267 298.05 315.28C297.961 315.294 297.869 315.294 297.78 315.28C297.444 315.316 297.104 315.306 296.77 315.25Z" fill="#263238"/>
<path d="M296.8 322.68C294.658 322.596 292.582 321.921 290.8 320.73C290.8 320.73 292.25 323.96 296.8 323.79V322.68Z" fill="#EB996E"/>
<path d="M294.9 315.58C295.01 315.58 294.97 316.26 295.53 316.78C296.09 317.3 296.81 317.26 296.81 317.35C296.81 317.44 296.64 317.47 296.34 317.47C295.938 317.452 295.555 317.293 295.26 317.02C294.975 316.763 294.802 316.403 294.78 316.02C294.77 315.74 294.86 315.58 294.9 315.58Z" fill="#263238"/>
<path d="M300.59 308.15C300.48 308.3 300 308.15 299.44 308.15C298.88 308.15 298.44 308.29 298.29 308.15C298.14 308.01 298.29 307.93 298.51 307.79C298.784 307.612 299.104 307.518 299.43 307.52C299.758 307.506 300.083 307.594 300.36 307.77C300.57 307.93 300.64 308.08 300.59 308.15Z" fill="#263238"/>
<path d="M292.88 311.92C292.877 312.072 292.934 312.219 293.039 312.33C293.144 312.44 293.288 312.505 293.44 312.51C293.514 312.518 293.589 312.512 293.66 312.49C293.731 312.469 293.797 312.433 293.854 312.385C293.911 312.338 293.958 312.279 293.991 312.213C294.025 312.147 294.045 312.074 294.05 312C294.053 311.847 293.996 311.699 293.891 311.587C293.787 311.475 293.643 311.408 293.49 311.4C293.416 311.393 293.341 311.401 293.269 311.424C293.198 311.446 293.132 311.483 293.075 311.531C293.019 311.58 292.972 311.639 292.938 311.706C292.905 311.773 292.885 311.845 292.88 311.92Z" fill="#263238"/>
<path d="M292.12 310.28C292.19 310.36 292.64 310.04 293.27 310.06C293.9 310.08 294.35 310.39 294.42 310.31C294.49 310.23 294.42 310.14 294.18 309.99C293.911 309.799 293.59 309.694 293.26 309.69C292.935 309.688 292.617 309.785 292.35 309.97C292.15 310.11 292.08 310.25 292.12 310.28Z" fill="#263238"/>
<path d="M291.76 308.94C291.88 309.08 292.37 308.94 292.95 308.94C293.53 308.94 294.02 309.05 294.14 308.94C294.26 308.83 294.14 308.73 293.9 308.59C293.609 308.419 293.277 308.33 292.94 308.33C292.603 308.33 292.271 308.419 291.98 308.59C291.77 308.72 291.7 308.87 291.76 308.94Z" fill="#263238"/>
<path d="M288.11 313.25C288.11 312.91 287.79 312.1 287.45 312.03C286.57 311.84 284.96 311.82 284.82 314.08C284.63 317.17 287.82 316.73 287.82 316.64C287.82 316.55 288.05 314.42 288.11 313.25Z" fill="#FFBE9D"/>
<path d="M287 315.46C287 315.46 286.95 315.46 286.85 315.53C286.721 315.579 286.579 315.579 286.45 315.53C286.257 315.393 286.104 315.206 286.008 314.99C285.911 314.774 285.874 314.535 285.9 314.3C285.911 314.035 285.979 313.776 286.1 313.54C286.136 313.446 286.194 313.361 286.268 313.293C286.343 313.226 286.433 313.177 286.53 313.15C286.592 313.138 286.657 313.147 286.713 313.176C286.769 313.205 286.814 313.252 286.84 313.31C286.848 313.363 286.848 313.417 286.84 313.47C286.84 313.47 286.91 313.42 286.89 313.29C286.875 313.213 286.837 313.143 286.78 313.09C286.74 313.056 286.694 313.031 286.644 313.016C286.594 313 286.542 312.995 286.49 313C286.361 313.015 286.239 313.063 286.136 313.14C286.032 313.218 285.951 313.321 285.9 313.44C285.751 313.699 285.668 313.991 285.66 314.29C285.627 314.564 285.676 314.841 285.8 315.086C285.925 315.332 286.12 315.535 286.36 315.67C286.438 315.708 286.523 315.728 286.61 315.728C286.697 315.728 286.782 315.708 286.86 315.67C287 315.53 287 315.46 287 315.46Z" fill="#EB996E"/>
<path d="M287.33 312L288.11 312.82C291.51 309.57 298.16 301.44 297.79 301.93C296.24 301.35 294.569 301.168 292.93 301.4C290.4 301.83 285.61 303.09 285.68 306.07C285.83 308.137 286.391 310.153 287.33 312Z" fill="#263238"/>
<path d="M282.83 311.35C282.83 311.35 282.83 311.29 282.83 311.17C282.891 311.006 282.961 310.846 283.04 310.69C283.363 310.115 283.806 309.617 284.34 309.23C285.149 308.67 286.049 308.254 287 308C288 307.66 289.2 307.4 290.35 306.91C291.433 306.46 292.46 305.887 293.41 305.2C294.186 304.64 294.909 304.011 295.57 303.32C296.13 302.72 296.57 302.2 296.82 301.84C296.94 301.66 297.05 301.52 297.13 301.41C297.21 301.3 297.24 301.26 297.25 301.27L297.16 301.43L296.87 301.87C296.502 302.407 296.094 302.915 295.65 303.39C294.993 304.101 294.27 304.747 293.49 305.32C292.53 306.001 291.493 306.565 290.4 307C289.24 307.49 288.06 307.75 287.03 308.08C286.109 308.334 285.237 308.74 284.45 309.28C283.919 309.649 283.473 310.126 283.14 310.68C283.023 310.897 282.919 311.121 282.83 311.35Z" fill="#455A64"/>
<path d="M283.73 311.84C283.722 311.607 283.763 311.376 283.85 311.16C284.079 310.569 284.484 310.063 285.01 309.71C285.798 309.207 286.679 308.867 287.6 308.71C288.703 308.495 289.78 308.159 290.81 307.71C291.833 307.245 292.794 306.654 293.67 305.95C294.874 304.986 295.909 303.826 296.73 302.52C296.84 302.34 296.93 302.2 296.99 302.08C297.022 302.03 297.059 301.983 297.1 301.94C297.079 301.996 297.052 302.049 297.02 302.1L296.78 302.55C296.473 303.094 296.118 303.609 295.72 304.09C295.129 304.828 294.458 305.499 293.72 306.09C292.838 306.808 291.866 307.41 290.83 307.88C289.787 308.333 288.697 308.668 287.58 308.88C286.672 309.04 285.805 309.38 285.03 309.88C284.506 310.211 284.097 310.697 283.86 311.27C283.799 311.456 283.755 311.646 283.73 311.84Z" fill="#455A64"/>
<path d="M281.92 339.77C281.773 337.803 281.773 335.827 281.92 333.86C282.053 335.828 282.053 337.802 281.92 339.77Z" fill="#263238"/>
<path d="M303.14 339.36C303.111 339.011 303.111 338.659 303.14 338.31C303.2 337.473 303.17 336.631 303.05 335.8C302.893 334.977 302.652 334.173 302.33 333.4C302.181 333.078 302.06 332.743 301.97 332.4C302.166 332.692 302.33 333.004 302.46 333.33C302.832 334.101 303.098 334.918 303.25 335.76C303.369 336.606 303.369 337.464 303.25 338.31C303.259 338.663 303.222 339.016 303.14 339.36Z" fill="#263238"/>
<path d="M411.08 332.88H334.63C332.807 332.877 331.06 332.151 329.772 330.861C328.483 329.571 327.76 327.823 327.76 326V309.16L319.33 301.68H411.08C412.901 301.683 414.647 302.407 415.935 303.695C417.223 304.983 417.947 306.729 417.95 308.55V326C417.95 327.823 417.227 329.571 415.938 330.861C414.65 332.151 412.903 332.877 411.08 332.88Z" fill="#EBEBEB"/>
<path d="M410.1 310.87C410.1 311.02 393.41 311.13 372.82 311.13C352.23 311.13 335.55 311.02 335.55 310.87C335.55 310.72 352.23 310.61 372.82 310.61C393.41 310.61 410.1 310.73 410.1 310.87Z" fill="white"/>
<path d="M410.1 316.35C410.1 316.49 393.41 316.61 372.82 316.61C352.23 316.61 335.55 316.49 335.55 316.35C335.55 316.21 352.23 316.09 372.82 316.09C393.41 316.09 410.1 316.21 410.1 316.35Z" fill="white"/>
<path d="M410.1 321.83C410.1 321.97 393.41 322.09 372.82 322.09C352.23 322.09 335.55 321.97 335.55 321.83C335.55 321.69 352.23 321.57 372.82 321.57C393.41 321.57 410.1 321.68 410.1 321.83Z" fill="white"/>
<path d="M410.1 187.74C410.1 187.88 393.41 188 372.82 188C352.23 188 335.55 187.88 335.55 187.74C335.55 187.6 352.23 187.48 372.82 187.48C393.41 187.48 410.1 187.59 410.1 187.74Z" fill="white"/>
<path d="M410.1 193.21C410.1 193.36 393.41 193.47 372.82 193.47C352.23 193.47 335.55 193.36 335.55 193.21C335.55 193.06 352.23 192.95 372.82 192.95C393.41 192.95 410.1 193.07 410.1 193.21Z" fill="white"/>
<path d="M410.1 199.79C410.1 199.94 393.41 200.05 372.82 200.05C352.23 200.05 335.55 199.94 335.55 199.79C335.55 199.64 352.23 199.53 372.82 199.53C393.41 199.53 410.1 199.65 410.1 199.79Z" fill="white"/>
<path d="M389.53 115.79C389.53 115.93 372.53 116.05 351.46 116.05C330.39 116.05 313.4 115.93 313.4 115.79C313.4 115.65 330.4 115.52 351.46 115.52C372.52 115.52 389.53 115.64 389.53 115.79Z" fill="#263238"/>
<path d="M423.26 104.63C424.238 104.63 425.03 103.838 425.03 102.86C425.03 101.882 424.238 101.09 423.26 101.09C422.282 101.09 421.49 101.882 421.49 102.86C421.49 103.838 422.282 104.63 423.26 104.63Z" fill="#263238"/>
<path d="M425 108C425.002 108.353 424.899 108.698 424.704 108.993C424.509 109.287 424.231 109.517 423.906 109.653C423.58 109.789 423.221 109.825 422.875 109.756C422.529 109.688 422.211 109.518 421.961 109.269C421.712 109.019 421.542 108.701 421.474 108.355C421.405 108.009 421.441 107.65 421.577 107.324C421.713 106.999 421.943 106.721 422.237 106.526C422.532 106.331 422.877 106.228 423.23 106.23C423.699 106.233 424.147 106.42 424.479 106.751C424.81 107.083 424.997 107.531 425 108Z" fill="#263238"/>
<path d="M425 113.19C425.002 113.543 424.899 113.888 424.704 114.183C424.509 114.477 424.231 114.707 423.906 114.843C423.58 114.979 423.221 115.015 422.875 114.946C422.529 114.878 422.211 114.708 421.961 114.459C421.712 114.209 421.542 113.891 421.474 113.545C421.405 113.199 421.441 112.84 421.577 112.514C421.713 112.189 421.943 111.911 422.237 111.716C422.532 111.521 422.877 111.418 423.23 111.42C423.699 111.42 424.15 111.606 424.482 111.938C424.814 112.27 425 112.721 425 113.19Z" fill="#263238"/>
<path d="M279.32 108.86C279.211 108.862 279.105 108.827 279.02 108.76L274.33 105.32C274.266 105.272 274.214 105.211 274.177 105.14C274.141 105.068 274.121 104.99 274.12 104.91C274.12 104.831 274.14 104.754 274.176 104.684C274.213 104.615 274.265 104.555 274.33 104.51L279.02 101.13C279.074 101.092 279.135 101.064 279.199 101.05C279.263 101.035 279.33 101.033 279.395 101.044C279.46 101.055 279.522 101.079 279.578 101.115C279.634 101.15 279.682 101.196 279.72 101.25C279.795 101.357 279.826 101.488 279.806 101.617C279.785 101.746 279.715 101.862 279.61 101.94L275.47 104.94L279.61 107.94C279.715 108.02 279.786 108.137 279.806 108.268C279.827 108.398 279.796 108.532 279.72 108.64C279.676 108.706 279.617 108.761 279.547 108.799C279.477 108.838 279.4 108.859 279.32 108.86Z" fill="#263238"/>
<path d="M401.71 277C414.098 277 424.14 266.98 424.14 254.62C424.14 242.26 414.098 232.24 401.71 232.24C389.322 232.24 379.28 242.26 379.28 254.62C379.28 266.98 389.322 277 401.71 277Z" fill="#E0E0E0"/>
<path d="M407.85 267.85H396.05C395.647 267.85 395.26 267.69 394.975 267.405C394.69 267.12 394.53 266.733 394.53 266.33C394.53 265.926 394.69 265.538 394.975 265.252C395.259 264.965 395.646 264.803 396.05 264.8H407.85C408.254 264.803 408.641 264.965 408.925 265.252C409.21 265.538 409.37 265.926 409.37 266.33C409.37 266.733 409.21 267.12 408.925 267.405C408.64 267.69 408.253 267.85 407.85 267.85Z" fill="#263238"/>
<path d="M402.62 240.07H401.58V245.31H402.62V240.07Z" fill="#263238"/>
<path d="M386.81 261.02C388.489 261.02 389.85 259.659 389.85 257.98C389.85 256.301 388.489 254.94 386.81 254.94C385.131 254.94 383.77 256.301 383.77 257.98C383.77 259.659 385.131 261.02 386.81 261.02Z" fill="#FFBB38"/>
<path d="M417.55 260.82C419.229 260.82 420.59 259.459 420.59 257.78C420.59 256.101 419.229 254.74 417.55 254.74C415.871 254.74 414.51 256.101 414.51 257.78C414.51 259.459 415.871 260.82 417.55 260.82Z" fill="#FFBB38"/>
<path d="M402.55 244.21C402.55 244.21 414.93 244.06 416.89 254.79C418.85 265.52 408.38 265.71 405.37 265.91C404.01 266 401.09 266.01 398.51 265.97C392.8 265.87 388.77 264.77 387.4 259.47C387.236 258.848 387.132 258.212 387.09 257.57C386.73 251.77 390.65 243.93 402.55 244.21Z" fill="#FFBB38"/>
<path d="M393.57 260.54L411.57 260.82C412.475 260.833 413.349 260.487 414 259.857C414.65 259.227 415.024 258.365 415.04 257.46C415.051 256.555 414.702 255.682 414.07 255.033C413.438 254.385 412.575 254.013 411.67 254L393.67 253.72C393.221 253.712 392.776 253.793 392.358 253.957C391.941 254.122 391.56 254.368 391.238 254.68C390.915 254.992 390.658 255.365 390.48 255.776C390.302 256.188 390.207 256.631 390.2 257.08C390.193 257.529 390.275 257.974 390.441 258.391C390.607 258.808 390.854 259.188 391.167 259.51C391.48 259.831 391.853 260.087 392.266 260.264C392.678 260.441 393.121 260.535 393.57 260.54Z" fill="#263238"/>
<path d="M407.83 257.09C407.856 257.231 407.911 257.366 407.989 257.487C408.068 257.607 408.17 257.711 408.289 257.792C408.408 257.872 408.542 257.929 408.683 257.958C408.824 257.987 408.969 257.988 409.11 257.96C409.262 257.945 409.41 257.898 409.543 257.822C409.676 257.747 409.791 257.644 409.883 257.521C409.974 257.398 410.038 257.258 410.072 257.109C410.106 256.959 410.108 256.805 410.079 256.655C410.05 256.504 409.989 256.362 409.902 256.237C409.814 256.111 409.702 256.005 409.571 255.926C409.44 255.846 409.294 255.795 409.143 255.775C408.991 255.755 408.837 255.767 408.69 255.81C408.549 255.838 408.416 255.892 408.296 255.972C408.177 256.051 408.075 256.153 407.995 256.272C407.915 256.391 407.859 256.524 407.831 256.664C407.803 256.805 407.802 256.949 407.83 257.09Z" fill="white"/>
<path d="M395.26 256.89C395.275 257.042 395.322 257.19 395.398 257.323C395.473 257.456 395.576 257.572 395.699 257.663C395.822 257.754 395.962 257.819 396.111 257.852C396.261 257.886 396.415 257.888 396.565 257.859C396.716 257.83 396.858 257.769 396.983 257.682C397.109 257.594 397.215 257.482 397.294 257.351C397.374 257.22 397.425 257.074 397.445 256.923C397.465 256.771 397.453 256.617 397.41 256.47C397.333 256.207 397.16 255.982 396.926 255.84C396.692 255.697 396.413 255.647 396.144 255.7C395.874 255.752 395.635 255.904 395.471 256.124C395.308 256.344 395.232 256.617 395.26 256.89Z" fill="white"/>
<path d="M403.81 240C403.812 240.339 403.713 240.67 403.527 240.953C403.34 241.235 403.074 241.456 402.761 241.587C402.449 241.718 402.105 241.753 401.773 241.688C401.44 241.623 401.135 241.461 400.894 241.223C400.654 240.984 400.49 240.679 400.424 240.347C400.357 240.015 400.39 239.671 400.519 239.358C400.648 239.045 400.868 238.777 401.149 238.589C401.43 238.401 401.761 238.3 402.1 238.3C402.552 238.3 402.985 238.479 403.306 238.797C403.626 239.116 403.807 239.548 403.81 240Z" fill="#FFBB38"/>
<path d="M404.68 256.59C404.68 256.59 404.75 256.67 404.79 256.85C404.821 257.105 404.797 257.365 404.72 257.61C404.61 257.99 404.403 258.334 404.12 258.61C403.773 258.956 403.318 259.172 402.83 259.22C402.342 259.26 401.856 259.133 401.45 258.86C401.129 258.642 400.865 258.351 400.68 258.01C400.562 257.78 400.493 257.528 400.48 257.27C400.48 257.09 400.48 256.99 400.54 256.99C400.6 256.99 400.64 257.37 400.97 257.84C401.163 258.1 401.404 258.321 401.68 258.49C402.014 258.689 402.402 258.78 402.79 258.75C403.162 258.702 403.511 258.542 403.79 258.29C404.042 258.081 404.244 257.818 404.38 257.52C404.64 257 404.6 256.59 404.68 256.59Z" fill="white"/>
<path d="M416.87 254.44C416.907 254.524 416.937 254.611 416.96 254.7C416.999 254.805 417.032 254.912 417.06 255.02C417.06 255.14 417.13 255.28 417.16 255.45C417.236 255.823 417.29 256.2 417.32 256.58C417.355 257.046 417.355 257.514 417.32 257.98C417.278 258.445 417.201 258.906 417.09 259.36C416.996 259.728 416.876 260.089 416.73 260.44C416.68 260.58 416.624 260.716 416.56 260.85C416.516 260.95 416.466 261.047 416.41 261.14L416.27 261.39C416.292 261.298 416.329 261.21 416.38 261.13L416.51 260.82C416.56 260.7 416.62 260.57 416.67 260.42C416.805 260.068 416.915 259.707 417 259.34C417.107 258.889 417.183 258.431 417.23 257.97C417.26 257.507 417.26 257.043 417.23 256.58C417.205 256.204 417.158 255.83 417.09 255.46C417.069 255.305 417.039 255.151 417 255C417 254.87 416.95 254.77 416.93 254.68C416.899 254.603 416.879 254.522 416.87 254.44Z" fill="#263238"/>
<path d="M387.54 254.5C387.497 254.586 387.464 254.677 387.44 254.77C387.44 254.85 387.38 254.96 387.34 255.08C387.3 255.2 387.27 255.35 387.24 255.51C387.163 255.883 387.113 256.26 387.09 256.64C387.055 257.106 387.055 257.574 387.09 258.04C387.13 258.505 387.207 258.967 387.32 259.42C387.413 259.792 387.533 260.156 387.68 260.51C387.73 260.66 387.8 260.79 387.85 260.91C387.9 261.03 387.96 261.13 388 261.21L388.14 261.45C388.114 261.359 388.077 261.272 388.03 261.19C388.03 261.11 387.95 261.01 387.9 260.89C387.85 260.77 387.79 260.64 387.74 260.49C387.606 260.134 387.495 259.77 387.41 259.4C387.303 258.949 387.226 258.491 387.18 258.03C387.15 257.57 387.15 257.11 387.18 256.65C387.205 256.271 387.252 255.894 387.32 255.52C387.341 255.378 387.371 255.238 387.41 255.1C387.41 254.97 387.46 254.86 387.48 254.78C387.5 254.7 387.54 254.5 387.54 254.5Z" fill="#263238"/>
<path d="M390.21 273.84C390.21 273.84 393.89 270.25 401.58 270.25C409.27 270.25 413.21 273.84 413.21 273.84C409.74 275.934 405.763 277.041 401.71 277.041C397.657 277.041 393.68 275.934 390.21 273.84Z" fill="#FFBB38"/>
<path d="M279 277.44H355.44C356.343 277.441 357.236 277.265 358.071 276.92C358.905 276.575 359.663 276.069 360.301 275.431C360.939 274.793 361.445 274.035 361.79 273.201C362.135 272.367 362.311 271.473 362.31 270.57V248.39L370.74 240.91H279C278.098 240.91 277.204 241.088 276.371 241.433C275.537 241.778 274.78 242.284 274.142 242.922C273.504 243.56 272.998 244.317 272.653 245.151C272.308 245.985 272.13 246.878 272.13 247.78V270.57C272.129 271.473 272.305 272.367 272.65 273.201C272.995 274.035 273.501 274.793 274.139 275.431C274.777 276.069 275.535 276.575 276.369 276.92C277.204 277.265 278.097 277.441 279 277.44Z" fill="#EBEBEB"/>
<path d="M352 251.75C352 251.9 336.26 252.01 316.84 252.01C297.42 252.01 281.68 251.9 281.68 251.75C281.68 251.6 297.42 251.49 316.84 251.49C336.26 251.49 352 251.61 352 251.75Z" fill="white"/>
<path d="M352 257.69C352 257.84 336.26 257.95 316.84 257.95C297.42 257.95 281.68 257.84 281.68 257.69C281.68 257.54 297.42 257.43 316.84 257.43C336.26 257.43 352 257.55 352 257.69Z" fill="white"/>
<path d="M352 263.63C352 263.77 336.26 263.89 316.84 263.89C297.42 263.89 281.68 263.77 281.68 263.63C281.68 263.49 297.42 263.37 316.84 263.37C336.26 263.37 352 263.49 352 263.63Z" fill="white"/>
<path d="M352 269.57C352 269.71 336.26 269.83 316.84 269.83C297.42 269.83 281.68 269.71 281.68 269.57C281.68 269.43 297.42 269.31 316.84 269.31C336.26 269.31 352 269.42 352 269.57Z" fill="white"/>
<path d="M401.71 401.28C414.098 401.28 424.14 391.26 424.14 378.9C424.14 366.54 414.098 356.52 401.71 356.52C389.322 356.52 379.28 366.54 379.28 378.9C379.28 391.26 389.322 401.28 401.71 401.28Z" fill="#E0E0E0"/>
<path d="M407.85 392.13H396.05C395.85 392.13 395.651 392.09 395.466 392.013C395.281 391.936 395.113 391.823 394.972 391.681C394.83 391.539 394.719 391.37 394.643 391.185C394.567 390.999 394.529 390.8 394.53 390.6C394.53 390.197 394.69 389.81 394.975 389.525C395.26 389.24 395.647 389.08 396.05 389.08H407.85C408.253 389.08 408.64 389.24 408.925 389.525C409.21 389.81 409.37 390.197 409.37 390.6C409.371 390.8 409.333 390.999 409.257 391.185C409.181 391.37 409.07 391.539 408.928 391.681C408.787 391.823 408.619 391.936 408.434 392.013C408.249 392.09 408.05 392.13 407.85 392.13Z" fill="#263238"/>
<path d="M402.62 364.35H401.58V369.59H402.62V364.35Z" fill="#263238"/>
<path d="M386.81 385.3C388.489 385.3 389.85 383.939 389.85 382.26C389.85 380.581 388.489 379.22 386.81 379.22C385.131 379.22 383.77 380.581 383.77 382.26C383.77 383.939 385.131 385.3 386.81 385.3Z" fill="#FFBB38"/>
<path d="M417.55 385.09C419.229 385.09 420.59 383.729 420.59 382.05C420.59 380.371 419.229 379.01 417.55 379.01C415.871 379.01 414.51 380.371 414.51 382.05C414.51 383.729 415.871 385.09 417.55 385.09Z" fill="#FFBB38"/>
<path d="M402.55 368.49C402.55 368.49 414.93 368.34 416.89 379.06C418.85 389.78 408.38 389.99 405.37 390.19C404.01 390.28 401.09 390.29 398.51 390.25C392.8 390.15 388.77 389.04 387.4 383.75C387.236 383.128 387.132 382.492 387.09 381.85C386.73 376.05 390.65 368.2 402.55 368.49Z" fill="#FFBB38"/>
<path d="M393.57 384.82L411.57 385.1C412.475 385.113 413.349 384.767 414 384.137C414.65 383.507 415.024 382.645 415.04 381.74C415.051 380.835 414.702 379.962 414.07 379.313C413.438 378.665 412.575 378.293 411.67 378.28L393.67 377.99C392.765 377.977 391.891 378.323 391.24 378.953C390.59 379.583 390.216 380.445 390.2 381.35C390.193 381.799 390.275 382.245 390.441 382.663C390.607 383.08 390.853 383.461 391.166 383.783C391.479 384.105 391.853 384.363 392.265 384.541C392.677 384.719 393.121 384.813 393.57 384.82Z" fill="#263238"/>
<path d="M407.83 381.37C407.854 381.512 407.906 381.649 407.983 381.771C408.06 381.893 408.161 381.999 408.279 382.083C408.397 382.167 408.53 382.226 408.671 382.258C408.812 382.29 408.958 382.294 409.1 382.27C409.242 382.246 409.379 382.194 409.501 382.117C409.623 382.04 409.729 381.939 409.813 381.821C409.897 381.703 409.956 381.57 409.988 381.429C410.02 381.288 410.024 381.142 410 381C409.985 380.848 409.938 380.7 409.862 380.567C409.787 380.434 409.684 380.318 409.561 380.227C409.438 380.136 409.298 380.072 409.149 380.038C408.999 380.004 408.845 380.002 408.695 380.031C408.545 380.06 408.402 380.121 408.277 380.208C408.151 380.296 408.045 380.408 407.966 380.539C407.886 380.67 407.835 380.816 407.815 380.967C407.795 381.119 407.807 381.273 407.85 381.42L407.83 381.37Z" fill="white"/>
<path d="M395.26 381.17C395.302 381.384 395.406 381.58 395.559 381.734C395.712 381.889 395.907 381.994 396.121 382.038C396.334 382.081 396.555 382.06 396.756 381.978C396.958 381.896 397.13 381.755 397.252 381.575C397.373 381.395 397.439 381.182 397.44 380.965C397.441 380.747 397.377 380.534 397.257 380.353C397.137 380.171 396.966 380.03 396.765 379.945C396.565 379.861 396.344 379.839 396.13 379.88C395.988 379.908 395.853 379.963 395.733 380.043C395.612 380.122 395.509 380.225 395.428 380.345C395.347 380.465 395.291 380.599 395.262 380.741C395.233 380.882 395.232 381.028 395.26 381.17Z" fill="white"/>
<path d="M403.81 364.24C403.81 364.578 403.71 364.909 403.522 365.19C403.334 365.471 403.067 365.69 402.754 365.82C402.442 365.949 402.098 365.983 401.766 365.917C401.435 365.851 401.13 365.688 400.891 365.449C400.652 365.21 400.489 364.905 400.423 364.574C400.357 364.242 400.391 363.898 400.52 363.586C400.65 363.273 400.869 363.006 401.15 362.818C401.431 362.63 401.762 362.53 402.1 362.53C402.554 362.53 402.988 362.71 403.309 363.031C403.63 363.352 403.81 363.787 403.81 364.24Z" fill="#FFBB38"/>
<path d="M404.68 380.86C404.68 380.86 404.75 380.95 404.79 381.13C404.821 381.385 404.797 381.645 404.72 381.89C404.608 382.269 404.401 382.613 404.12 382.89C403.773 383.236 403.318 383.452 402.83 383.5C402.342 383.541 401.856 383.414 401.45 383.14C401.129 382.922 400.865 382.631 400.68 382.29C400.563 382.06 400.495 381.808 400.48 381.55C400.48 381.37 400.48 381.27 400.54 381.27C400.6 381.27 400.64 381.65 400.97 382.11C401.159 382.376 401.401 382.601 401.68 382.77C402.017 382.963 402.403 383.053 402.79 383.03C403.162 382.982 403.511 382.822 403.79 382.57C404.038 382.357 404.239 382.095 404.38 381.8C404.64 381.26 404.6 380.87 404.68 380.86Z" fill="white"/>
<path d="M416.87 378.71C416.87 378.71 416.87 378.81 416.96 378.98C417 379.084 417.034 379.191 417.06 379.3C417.06 379.42 417.13 379.56 417.16 379.72C417.235 380.093 417.288 380.471 417.32 380.85C417.355 381.316 417.355 381.784 417.32 382.25C417.28 382.715 417.203 383.177 417.09 383.63C416.997 384.002 416.877 384.366 416.73 384.72C416.681 384.856 416.624 384.99 416.56 385.12C416.518 385.224 416.468 385.324 416.41 385.42L416.27 385.66C416.296 385.569 416.333 385.482 416.38 385.4C416.38 385.32 416.46 385.22 416.51 385.1C416.56 384.98 416.62 384.85 416.67 384.7C416.806 384.345 416.916 383.981 417 383.61C417.108 383.162 417.184 382.708 417.23 382.25C417.26 381.787 417.26 381.323 417.23 380.86C417.206 380.484 417.159 380.11 417.09 379.74C417.069 379.595 417.039 379.451 417 379.31C417 379.18 416.95 379.08 416.93 378.99C416.896 378.9 416.875 378.806 416.87 378.71Z" fill="#263238"/>
<path d="M387.54 378.78C387.497 378.866 387.464 378.957 387.44 379.05C387.44 379.13 387.38 379.24 387.34 379.36C387.3 379.48 387.27 379.63 387.24 379.79C387.163 380.163 387.113 380.54 387.09 380.92C387.055 381.386 387.055 381.854 387.09 382.32C387.131 382.785 387.208 383.247 387.32 383.7C387.413 384.072 387.533 384.436 387.68 384.79C387.73 384.94 387.8 385.07 387.85 385.19C387.9 385.31 387.96 385.41 388 385.49L388.14 385.73C388.116 385.639 388.079 385.551 388.03 385.47C388.03 385.39 387.95 385.29 387.9 385.17C387.85 385.05 387.79 384.92 387.74 384.76C387.605 384.408 387.495 384.047 387.41 383.68C387.303 383.229 387.226 382.771 387.18 382.31C387.15 381.851 387.15 381.39 387.18 380.93C387.205 380.551 387.252 380.174 387.32 379.8C387.341 379.658 387.371 379.518 387.41 379.38C387.41 379.25 387.46 379.14 387.48 379.06C387.5 378.98 387.54 378.78 387.54 378.78Z" fill="#263238"/>
<path d="M390.21 398.12C390.21 398.12 393.89 394.53 401.58 394.53C409.27 394.53 413.21 398.12 413.21 398.12C409.74 400.214 405.763 401.321 401.71 401.321C397.657 401.321 393.68 400.214 390.21 398.12Z" fill="#FFBB38"/>
<path d="M279 401.72H355.44C356.343 401.721 357.236 401.545 358.071 401.2C358.905 400.855 359.663 400.349 360.301 399.711C360.939 399.073 361.445 398.315 361.79 397.481C362.135 396.646 362.311 395.753 362.31 394.85V372.67L370.74 365.19H279C278.098 365.19 277.204 365.368 276.371 365.713C275.537 366.058 274.78 366.564 274.142 367.202C273.504 367.84 272.998 368.597 272.653 369.431C272.308 370.264 272.13 371.158 272.13 372.06V394.85C272.129 395.753 272.305 396.646 272.65 397.481C272.995 398.315 273.501 399.073 274.139 399.711C274.777 400.349 275.535 400.855 276.369 401.2C277.204 401.545 278.097 401.721 279 401.72Z" fill="#EBEBEB"/>
<path d="M279 436.41H355.44C356.343 436.41 357.237 436.232 358.071 435.886C358.906 435.54 359.663 435.033 360.301 434.394C360.939 433.755 361.445 432.997 361.79 432.162C362.135 431.327 362.311 430.433 362.31 429.53V422.18L370.74 414.7H279C278.098 414.7 277.204 414.878 276.371 415.223C275.537 415.568 274.78 416.074 274.142 416.712C273.504 417.35 272.998 418.107 272.653 418.941C272.308 419.774 272.13 420.668 272.13 421.57V429.57C272.138 431.387 272.865 433.127 274.153 434.408C275.44 435.69 277.183 436.41 279 436.41Z" fill="#EBEBEB"/>
<path d="M352 376C352 376.15 336.26 376.26 316.84 376.26C297.42 376.26 281.68 376.15 281.68 376C281.68 375.85 297.42 375.74 316.84 375.74C336.26 375.74 352 375.89 352 376Z" fill="white"/>
<path d="M352 382C352 382.14 336.26 382.26 316.84 382.26C297.42 382.26 281.68 382.14 281.68 382C281.68 381.86 297.42 381.74 316.84 381.74C336.26 381.74 352 381.83 352 382Z" fill="white"/>
<path d="M352 387.91C352 388.05 336.26 388.17 316.84 388.17C297.42 388.17 281.68 388.05 281.68 387.91C281.68 387.77 297.42 387.65 316.84 387.65C336.26 387.65 352 387.76 352 387.91Z" fill="white"/>
<path d="M352 393.85C352 393.99 336.26 394.11 316.84 394.11C297.42 394.11 281.68 393.99 281.68 393.85C281.68 393.71 297.42 393.59 316.84 393.59C336.26 393.59 352 393.7 352 393.85Z" fill="white"/>
<path d="M352.24 425.87C352.24 426.01 336.66 426.13 317.45 426.13C298.24 426.13 282.65 426.01 282.65 425.87C282.65 425.73 298.23 425.61 317.45 425.61C336.67 425.61 352.24 425.72 352.24 425.87Z" fill="white"/>
<path d="M121.1 151.7L117.4 140.15C122.663 131.61 124.54 121.411 122.665 111.556C120.789 101.702 115.295 92.9062 107.262 86.8973C99.2302 80.8883 89.2408 78.1012 79.2579 79.0837C69.275 80.0663 60.0206 84.7474 53.314 92.207C46.6074 99.6665 42.9336 109.365 43.0147 119.396C43.0959 129.427 46.9262 139.064 53.7527 146.414C60.5792 153.764 69.9081 158.295 79.9056 159.116C89.9031 159.937 99.8461 156.988 107.78 150.85L121.1 151.7Z" fill="#FAFAFA"/>
<path d="M121.1 151.7H120.26L117.72 151.57L107.72 151.02C107.705 151.02 107.689 151.017 107.675 151.011C107.661 151.005 107.649 150.996 107.638 150.984C107.628 150.973 107.62 150.96 107.615 150.945C107.61 150.931 107.609 150.915 107.61 150.9C107.606 150.88 107.606 150.86 107.61 150.84L107.77 151C100.821 156.427 92.2767 159.412 83.46 159.49C81.2333 159.478 79.0105 159.301 76.81 158.96C66.5854 157.36 57.3762 151.866 51.11 143.63C47.6201 138.993 45.1618 133.664 43.9 128C42.5287 121.977 42.5835 115.718 44.06 109.72C44.25 108.96 44.45 108.19 44.65 107.43C44.85 106.67 45.18 105.93 45.44 105.18C45.6934 104.421 45.9871 103.677 46.32 102.95C46.66 102.23 47.01 101.51 47.32 100.78C47.6641 100.05 48.0584 99.3452 48.5 98.67L49.77 96.59L51.23 94.59L51.97 93.59C52.22 93.27 52.51 92.98 52.78 92.67C57.1045 87.6979 62.5903 83.8712 68.75 81.53C74.6139 79.2956 80.9107 78.4303 87.16 79C93.0321 79.5838 98.7033 81.4549 103.77 84.48C112.774 89.8276 119.342 98.4719 122.08 108.58C122.658 110.746 123.073 112.952 123.32 115.18C123.48 117.263 123.517 119.353 123.43 121.44C123.047 128.091 121.005 134.54 117.49 140.2V140.11C118.67 143.87 119.57 146.77 120.19 148.75C120.49 149.75 120.71 150.44 120.87 150.95L121.09 151.69C121.09 151.69 120.99 151.42 120.82 150.92L120.09 148.71C119.45 146.71 118.5 143.89 117.28 140.18C117.269 140.151 117.269 140.119 117.28 140.09C120.729 134.443 122.718 128.027 123.07 121.42C123.147 119.352 123.1 117.282 122.93 115.22C122.68 113.011 122.262 110.825 121.68 108.68C119.535 100.899 115.086 93.9482 108.918 88.742C102.75 83.5358 95.1511 80.3175 87.12 79.51C80.9495 78.9453 74.7314 79.7969 68.94 82C62.8739 84.3212 57.4719 88.0988 53.21 93C52.95 93.31 52.66 93.59 52.41 93.91L51.68 94.91L50.24 96.84L49 98.9C48.56 99.5727 48.1658 100.274 47.82 101C47.48 101.71 47.14 102.43 46.82 103.14C46.4938 103.857 46.2067 104.592 45.96 105.34C45.7 106.08 45.39 106.81 45.17 107.56C44.95 108.31 44.78 109.07 44.59 109.82C43.14 115.725 43.0784 121.887 44.41 127.82C46.1428 135.612 50.176 142.703 55.9869 148.175C61.7978 153.647 69.1185 157.248 77 158.51C79.1805 158.852 81.3829 159.036 83.59 159.06C85.6502 159.051 87.7065 158.881 89.74 158.55C96.2921 157.482 102.477 154.806 107.74 150.76C107.75 150.749 107.763 150.74 107.776 150.734C107.79 150.729 107.805 150.725 107.82 150.725C107.835 150.725 107.85 150.729 107.864 150.734C107.877 150.74 107.89 150.749 107.9 150.76C107.915 150.78 107.923 150.805 107.923 150.83C107.923 150.855 107.915 150.88 107.9 150.9L107.82 150.72L117.7 151.4L120.26 151.58L121.1 151.7Z" fill="#263238"/>
<path d="M71.94 119.14C71.94 119.945 71.7013 120.732 71.2541 121.401C70.8069 122.07 70.1712 122.592 69.4275 122.9C68.6838 123.208 67.8655 123.289 67.076 123.132C66.2865 122.975 65.5613 122.587 64.9921 122.018C64.4229 121.449 64.0352 120.723 63.8782 119.934C63.7212 119.144 63.8018 118.326 64.1098 117.582C64.4178 116.839 64.9395 116.203 65.6088 115.756C66.2781 115.309 67.065 115.07 67.87 115.07C68.9486 115.073 69.9823 115.502 70.745 116.265C71.5077 117.028 71.9374 118.061 71.94 119.14Z" fill="#263238"/>
<path d="M88.24 119.14C88.24 119.945 88.0013 120.732 87.5541 121.401C87.1068 122.07 86.4712 122.592 85.7275 122.9C84.9838 123.208 84.1655 123.289 83.376 123.132C82.5865 122.975 81.8612 122.587 81.2921 122.018C80.7229 121.449 80.3352 120.723 80.1782 119.934C80.0211 119.144 80.1017 118.326 80.4098 117.582C80.7178 116.839 81.2395 116.203 81.9088 115.756C82.5781 115.309 83.365 115.07 84.17 115.07C85.2486 115.073 86.2823 115.502 87.045 116.265C87.8077 117.028 88.2373 118.061 88.24 119.14Z" fill="#263238"/>
<path d="M104.5 117.11C104.901 117.807 105.087 118.608 105.034 119.41C104.98 120.213 104.69 120.982 104.2 121.619C103.71 122.257 103.042 122.736 102.281 122.994C101.519 123.253 100.698 123.28 99.9208 123.072C99.1438 122.864 98.4457 122.431 97.9149 121.826C97.384 121.222 97.0441 120.474 96.9381 119.677C96.8321 118.879 96.9647 118.069 97.3192 117.346C97.6737 116.624 98.2342 116.024 98.93 115.62C99.3933 115.351 99.9051 115.176 100.436 115.106C100.967 115.035 101.507 115.07 102.024 115.209C102.542 115.347 103.027 115.586 103.452 115.912C103.877 116.239 104.233 116.646 104.5 117.11Z" fill="#263238"/>
<path d="M106.12 299L64 294.64L46.16 254.15L32.3 257.76C32.3 257.76 42.54 300.55 54 307.18C65.46 313.81 104.61 315 104.61 315L106.12 299Z" fill="#FFBB38"/>
<path d="M128.512 319.594C135.365 311.883 134.67 300.076 126.959 293.222C119.248 286.369 107.441 287.064 100.587 294.775C93.7335 302.486 94.4287 314.293 102.14 321.147C109.851 328.001 121.658 327.305 128.512 319.594Z" fill="#263238"/>
<path d="M114.55 325.88C110.221 325.88 106.027 324.379 102.681 321.633C99.3344 318.887 97.044 315.066 96.1996 310.82C95.3551 306.575 96.0088 302.168 98.0493 298.35C100.09 294.533 103.391 291.541 107.39 289.884C111.389 288.228 115.839 288.009 119.981 289.266C124.124 290.522 127.702 293.176 130.107 296.775C132.512 300.374 133.594 304.696 133.17 309.004C132.746 313.312 130.841 317.339 127.78 320.4C126.047 322.143 123.985 323.524 121.714 324.465C119.443 325.406 117.008 325.887 114.55 325.88ZM114.55 288.52C110.233 288.516 106.048 290.008 102.708 292.743C99.368 295.479 97.0798 299.287 96.2331 303.52C95.3865 307.754 96.0338 312.149 98.0648 315.959C100.096 319.768 103.385 322.756 107.371 324.412C111.358 326.068 115.796 326.291 119.928 325.042C124.061 323.794 127.632 321.151 130.035 317.564C132.437 313.977 133.521 309.668 133.103 305.371C132.684 301.075 130.789 297.056 127.74 294C126.013 292.26 123.958 290.879 121.694 289.939C119.43 288.998 117.002 288.516 114.55 288.52Z" fill="#263238"/>
<path d="M60.2243 310.379C67.748 308.572 72.3829 301.009 70.5766 293.485C68.7703 285.961 61.2068 281.327 53.6831 283.133C46.1594 284.939 41.5245 292.503 43.3308 300.026C45.1371 307.55 52.7005 312.185 60.2243 310.379Z" fill="#263238"/>
<path d="M46.3149 257.424C50.7864 252.952 50.7864 245.702 46.3149 241.231C41.8434 236.759 34.5937 236.759 30.1222 241.231C25.6507 245.702 25.6507 252.952 30.1222 257.424C34.5937 261.895 41.8434 261.895 46.3149 257.424Z" fill="#263238"/>
<path d="M56.065 243.131L46.637 251.092L43.2368 247.066L52.6649 239.104C53.1613 238.685 53.804 238.48 54.4514 238.535C55.0989 238.59 55.6982 238.899 56.1174 239.396L56.3497 239.671C56.5588 239.916 56.7174 240.201 56.8163 240.508C56.9152 240.815 56.9525 241.138 56.9261 241.46C56.8996 241.781 56.8099 242.094 56.6622 242.381C56.5144 242.668 56.3115 242.923 56.065 243.131Z" fill="#263238"/>
<path d="M44.09 228.55V240.55C44.09 240.643 44.0531 240.732 43.9875 240.797C43.9218 240.863 43.8328 240.9 43.74 240.9H39.18C39.0872 240.9 38.9981 240.863 38.9325 240.797C38.8668 240.732 38.83 240.643 38.83 240.55V228.55C38.83 227.9 39.0881 227.277 39.5476 226.818C40.007 226.358 40.6302 226.1 41.28 226.1H41.64C42.2897 226.1 42.9129 226.358 43.3724 226.818C43.8319 227.277 44.09 227.9 44.09 228.55Z" fill="#263238"/>
<path d="M35.5989 228.595L38.2187 240.306C38.2389 240.396 38.2224 240.491 38.1727 240.57C38.1229 240.648 38.0441 240.704 37.9535 240.724L33.5035 241.719C33.4129 241.74 33.318 241.723 33.2396 241.673C33.1612 241.624 33.1058 241.545 33.0855 241.454L30.4658 229.744C30.3239 229.11 30.4398 228.445 30.7878 227.896C31.1359 227.348 31.6877 226.96 32.3218 226.818L32.6731 226.739C33.3072 226.597 33.9717 226.713 34.5204 227.061C35.0691 227.409 35.457 227.961 35.5989 228.595Z" fill="#263238"/>
<path d="M26.4643 231.53L32.4643 241.922C32.5108 242.003 32.5233 242.098 32.4993 242.188C32.4753 242.278 32.4166 242.354 32.3362 242.4L28.3872 244.68C28.3068 244.727 28.2112 244.739 28.1216 244.715C28.0319 244.691 27.9555 244.633 27.909 244.552L21.909 234.16C21.5842 233.597 21.4961 232.929 21.6643 232.301C21.8325 231.673 22.2431 231.138 22.8058 230.813L23.1176 230.633C23.6803 230.308 24.3491 230.22 24.9767 230.389C25.6043 230.557 26.1395 230.967 26.4643 231.53Z" fill="#263238"/>
<path d="M289.178 403.89L301.786 398.528L265.407 312.993L252.8 318.355L289.178 403.89Z" fill="#FFBB38"/>
<path d="M267.215 321.166C273.883 313.295 272.908 301.508 265.036 294.839C257.164 288.17 245.377 289.146 238.709 297.017C232.04 304.889 233.015 316.676 240.887 323.345C248.759 330.013 260.546 329.038 267.215 321.166Z" fill="#263238"/>
<path d="M253 327.84C250.069 327.841 247.179 327.155 244.562 325.835C241.946 324.516 239.675 322.6 237.934 320.243C236.192 317.886 235.029 315.153 234.537 312.264C234.044 309.375 234.237 306.411 235.1 303.61C236.123 300.306 238.041 297.351 240.643 295.073C243.244 292.794 246.427 291.282 249.836 290.703C253.246 290.125 256.749 290.503 259.956 291.797C263.164 293.09 265.95 295.247 268.004 298.029C270.059 300.81 271.303 304.107 271.596 307.553C271.89 310.998 271.222 314.458 269.667 317.547C268.112 320.636 265.732 323.234 262.789 325.051C259.847 326.868 256.458 327.833 253 327.84ZM253 290.46C249.548 290.463 246.164 291.425 243.225 293.237C240.287 295.049 237.908 297.64 236.355 300.723C234.801 303.807 234.134 307.26 234.426 310.7C234.718 314.14 235.959 317.432 238.011 320.208C240.062 322.985 242.844 325.138 246.046 326.428C249.249 327.718 252.746 328.095 256.149 327.515C259.553 326.936 262.729 325.424 265.324 323.148C267.92 320.871 269.832 317.919 270.85 314.62C272.303 309.892 271.82 304.782 269.508 300.41C267.197 296.038 263.245 292.761 258.52 291.3C256.713 290.74 254.832 290.457 252.94 290.46H253Z" fill="#263238"/>
<path d="M290.784 364.944C292.855 357.489 288.491 349.766 281.036 347.694C273.581 345.622 265.858 349.986 263.787 357.441C261.715 364.896 266.079 372.619 273.534 374.691C280.989 376.763 288.712 372.399 290.784 364.944Z" fill="#263238"/>
<path d="M298.41 416.25C304.734 416.25 309.86 411.124 309.86 404.8C309.86 398.476 304.734 393.35 298.41 393.35C292.086 393.35 286.96 398.476 286.96 404.8C286.96 411.124 292.086 416.25 298.41 416.25Z" fill="#263238"/>
<path d="M283.434 416.331L289.846 405.811L294.346 408.553L287.934 419.073C287.596 419.628 287.052 420.026 286.42 420.179C285.789 420.333 285.122 420.229 284.567 419.891L284.26 419.703C283.984 419.536 283.743 419.317 283.552 419.057C283.361 418.797 283.223 418.502 283.147 418.189C283.07 417.875 283.056 417.55 283.105 417.231C283.155 416.912 283.266 416.606 283.434 416.331Z" fill="#263238"/>
<path d="M299.398 426.365L295.598 414.982C295.569 414.894 295.576 414.798 295.617 414.715C295.659 414.632 295.731 414.569 295.819 414.539L300.145 413.095C300.233 413.066 300.329 413.073 300.412 413.114C300.495 413.156 300.558 413.228 300.588 413.317L304.387 424.699C304.485 425.005 304.522 425.328 304.496 425.649C304.469 425.97 304.38 426.282 304.232 426.568C304.085 426.854 303.883 427.108 303.637 427.316C303.392 427.524 303.108 427.682 302.801 427.78L302.46 427.894C301.851 428.089 301.19 428.038 300.618 427.752C300.045 427.467 299.608 426.969 299.398 426.365Z" fill="#263238"/>
<path d="M307.446 423.637L301.253 413.358C301.23 413.319 301.214 413.275 301.207 413.23C301.2 413.184 301.202 413.138 301.214 413.093C301.225 413.049 301.244 413.007 301.272 412.97C301.299 412.933 301.333 412.902 301.373 412.878L305.278 410.524C305.318 410.501 305.361 410.485 305.407 410.478C305.452 410.471 305.499 410.473 305.543 410.485C305.588 410.496 305.63 410.515 305.667 410.543C305.704 410.57 305.735 410.604 305.759 410.644L311.952 420.922C312.287 421.479 312.388 422.146 312.231 422.776C312.075 423.407 311.674 423.95 311.118 424.285L310.809 424.471C310.253 424.806 309.586 424.907 308.955 424.75C308.324 424.594 307.782 424.193 307.446 423.637Z" fill="#263238"/>
<path d="M315.177 417.969L306.195 410.012C306.126 409.95 306.083 409.864 306.078 409.771C306.072 409.678 306.104 409.587 306.165 409.518L309.182 406.112C309.244 406.043 309.331 406 309.423 405.995C309.516 405.989 309.607 406.021 309.677 406.082L318.658 414.04C319.145 414.471 319.44 415.077 319.479 415.726C319.519 416.374 319.298 417.012 318.868 417.498L318.629 417.768C318.197 418.251 317.592 418.544 316.945 418.582C316.298 418.619 315.662 418.399 315.177 417.969Z" fill="#263238"/>
<path d="M109 287.74C109 287.74 110.35 418.88 183.94 421.44C257.53 424 260.62 288.68 260.62 287.74C260.62 287.74 251.93 268.19 184.81 268.95C117.69 269.71 109 287.74 109 287.74Z" fill="#FFBB38"/>
<path d="M150.32 264.66H212.52C216.579 264.66 219.87 261.369 219.87 257.31V256.24C219.87 252.181 216.579 248.89 212.52 248.89H150.32C146.261 248.89 142.97 252.181 142.97 256.24V257.31C142.97 261.369 146.261 264.66 150.32 264.66Z" fill="#263238"/>
<path d="M178.74 148.05H184.11V120.9H178.74V148.05Z" fill="#263238"/>
<path d="M263.534 228.877C272.013 226.862 277.253 218.355 275.238 209.876C273.222 201.397 264.715 196.157 256.236 198.172C247.758 200.188 242.518 208.695 244.533 217.174C246.548 225.652 255.055 230.892 263.534 228.877Z" fill="#FFBB38"/>
<path d="M104.086 227.852C112.585 225.924 117.913 217.472 115.985 208.972C114.057 200.473 105.604 195.146 97.105 197.074C88.6058 199.002 83.2787 207.455 85.2066 215.954C87.1344 224.453 95.5872 229.78 104.086 227.852Z" fill="#FFBB38"/>
<path d="M178.3 142.16C178.3 142.16 114.14 141.39 104 197C93.86 252.61 148.1 253.61 163.71 254.66C170.78 255.14 185.92 255.19 199.28 254.95C228.86 254.44 249.76 248.72 256.87 221.28C257.717 218.062 258.249 214.77 258.46 211.45C260.33 181.33 240 140.68 178.3 142.16Z" fill="#FFBB38"/>
<path d="M224.84 226.8L131.63 228.25C129.304 228.291 126.993 227.873 124.829 227.02C122.666 226.167 120.691 224.895 119.019 223.278C117.347 221.661 116.011 219.73 115.086 217.596C114.161 215.461 113.666 213.166 113.63 210.84C113.59 208.514 114.01 206.203 114.864 204.039C115.718 201.875 116.99 199.9 118.608 198.229C120.226 196.557 122.158 195.22 124.293 194.296C126.428 193.371 128.724 192.876 131.05 192.84L224.26 191.39C226.586 191.348 228.897 191.765 231.062 192.617C233.227 193.47 235.201 194.741 236.874 196.359C238.546 197.976 239.882 199.908 240.807 202.043C241.731 204.178 242.225 206.474 242.26 208.8C242.301 211.126 241.883 213.438 241.029 215.603C240.175 217.767 238.903 219.742 237.285 221.414C235.666 223.086 233.734 224.423 231.599 225.347C229.463 226.271 227.167 226.765 224.84 226.8Z" fill="#263238"/>
<path d="M151 208.91C150.783 210.012 150.244 211.025 149.452 211.821C148.659 212.617 147.649 213.16 146.548 213.382C145.446 213.604 144.304 213.494 143.265 213.066C142.227 212.639 141.338 211.913 140.712 210.981C140.085 210.048 139.75 208.951 139.747 207.828C139.744 206.705 140.074 205.606 140.696 204.67C141.318 203.735 142.203 203.004 143.239 202.572C144.276 202.139 145.418 202.024 146.52 202.24C147.252 202.384 147.949 202.67 148.57 203.083C149.192 203.496 149.726 204.027 150.142 204.647C150.558 205.266 150.848 205.962 150.995 206.693C151.142 207.425 151.144 208.178 151 208.91Z" fill="white"/>
<path d="M216.09 207.87C215.875 208.973 215.338 209.987 214.546 210.785C213.754 211.583 212.744 212.127 211.642 212.35C210.541 212.573 209.398 212.465 208.359 212.038C207.319 211.612 206.429 210.886 205.802 209.954C205.175 209.021 204.838 207.924 204.835 206.8C204.832 205.676 205.162 204.577 205.784 203.641C206.405 202.705 207.291 201.974 208.328 201.541C209.365 201.109 210.507 200.993 211.61 201.21C213.087 201.5 214.388 202.364 215.228 203.613C216.068 204.862 216.378 206.393 216.09 207.87Z" fill="white"/>
<path d="M206.72 339.82C206.355 344.824 204.514 349.608 201.43 353.566C198.346 357.524 194.158 360.478 189.395 362.056C184.632 363.634 179.508 363.764 174.671 362.43C169.834 361.095 165.502 358.357 162.221 354.56C158.94 350.764 156.859 346.08 156.241 341.1C155.622 336.121 156.494 331.07 158.746 326.587C160.998 322.103 164.529 318.387 168.892 315.91C173.256 313.433 178.256 312.306 183.26 312.67C189.97 313.161 196.211 316.297 200.61 321.388C205.01 326.48 207.207 333.109 206.72 339.82Z" fill="#263238"/>
<path d="M199.85 339.32C199.583 342.967 198.241 346.453 195.992 349.338C193.744 352.222 190.691 354.375 187.219 355.524C183.747 356.673 180.013 356.767 176.488 355.794C172.963 354.82 169.805 352.823 167.415 350.055C165.025 347.288 163.509 343.873 163.06 340.244C162.61 336.615 163.247 332.934 164.889 329.666C166.532 326.399 169.106 323.692 172.287 321.887C175.468 320.083 179.113 319.263 182.76 319.53C185.182 319.706 187.546 320.358 189.716 321.448C191.886 322.538 193.819 324.045 195.407 325.883C196.994 327.721 198.203 329.854 198.966 332.159C199.728 334.465 200.029 336.898 199.85 339.32Z" fill="white"/>
<path d="M190.94 342.68C190.799 341.67 190.742 340.65 190.77 339.63C190.72 337.72 190.68 334.99 190.68 331.63L190.88 332L181.37 326.45H181.9L172.3 331.84C172.04 332.28 172.65 331.25 172.59 331.36V332.78V334.21C172.59 335.15 172.59 336.09 172.54 337.01C172.54 338.85 172.47 340.63 172.44 342.35L172.18 341.89L181.58 347.63H181.16C184.09 346.05 186.51 344.79 188.16 343.93C189.048 343.425 189.974 342.99 190.93 342.63C190.184 343.238 189.38 343.77 188.53 344.22C186.91 345.22 184.53 346.63 181.53 348.36L181.32 348.48L181.11 348.36L171.59 342.81L171.33 342.66V342.34C171.33 340.62 171.35 338.84 171.39 337C171.39 336.08 171.39 335.15 171.39 334.2V332.78V331.4C171.33 331.51 171.94 330.49 171.68 330.92L181.31 325.58L181.59 325.43L181.85 325.59L191.24 331.33L191.45 331.46V331.7C191.34 335.16 191.23 337.94 191.13 339.83C191.156 340.784 191.092 341.738 190.94 342.68Z" fill="#FFBB38"/>
<path d="M187.689 126.608C191.145 123.152 191.145 117.548 187.689 114.092C184.232 110.636 178.629 110.636 175.173 114.092C171.717 117.548 171.717 123.152 175.173 126.608C178.629 130.064 184.232 130.064 187.689 126.608Z" fill="#FFBB38"/>
<path d="M167.29 206.29C167.71 206.34 167.5 208.29 168.74 210.96C169.443 212.492 170.466 213.856 171.74 214.96C173.234 216.274 175.093 217.101 177.07 217.33C179.057 217.458 181.037 216.984 182.75 215.97C184.2 215.127 185.454 213.985 186.43 212.62C188.13 210.25 188.28 208.26 188.7 208.29C188.87 208.29 189.04 208.79 189.04 209.73C189.002 211.069 188.66 212.382 188.04 213.57C187.108 215.365 185.731 216.89 184.04 218C181.95 219.473 179.403 220.154 176.856 219.921C174.31 219.689 171.929 218.557 170.14 216.73C168.68 215.334 167.605 213.584 167.02 211.65C166.603 210.36 166.494 208.99 166.7 207.65C166.87 206.72 167.13 206.26 167.29 206.29Z" fill="white"/>
<path d="M252.72 232.2C252.62 232.2 253.77 230.4 254.88 227.25C256.26 223.125 257.134 218.846 257.48 214.51C257.88 210.189 257.981 205.845 257.78 201.51C257.71 199.84 257.63 198.51 257.55 197.51C257.482 197.026 257.466 196.537 257.5 196.05C257.628 196.521 257.712 197.003 257.75 197.49C257.89 198.42 258.03 199.77 258.15 201.49C258.464 205.86 258.413 210.248 258 214.61C257.648 218.987 256.717 223.298 255.23 227.43C254.759 228.676 254.191 229.883 253.53 231.04C253.294 231.449 253.023 231.837 252.72 232.2Z" fill="#263238"/>
<path d="M104.12 195.14C104.063 195.626 103.96 196.105 103.81 196.57C103.68 197.02 103.54 197.57 103.41 198.23C103.28 198.89 103.08 199.61 102.96 200.44C102.609 202.367 102.376 204.314 102.26 206.27C102.125 208.663 102.159 211.062 102.36 213.45C102.583 215.834 102.971 218.199 103.52 220.53C103.979 222.436 104.553 224.313 105.24 226.15C105.51 226.94 105.82 227.63 106.07 228.25C106.32 228.87 106.56 229.39 106.76 229.81C106.988 230.242 107.175 230.694 107.32 231.16C107.035 230.763 106.788 230.342 106.58 229.9C106.297 229.4 106.04 228.886 105.81 228.36C105.53 227.76 105.19 227.07 104.9 226.28C104.158 224.448 103.543 222.567 103.06 220.65C102.475 218.297 102.067 215.904 101.84 213.49C101.636 211.078 101.616 208.655 101.78 206.24C101.919 204.267 102.193 202.306 102.6 200.37C102.75 199.54 102.96 198.81 103.13 198.16C103.3 197.51 103.46 196.96 103.61 196.51C103.743 196.04 103.913 195.582 104.12 195.14Z" fill="#263238"/>
<path d="M108.66 287.63L109.04 287.74L110.16 288.12L114.42 289.62L117.5 290.72C118.63 291.1 119.88 291.46 121.21 291.87C123.88 292.66 126.89 293.69 130.31 294.49L135.64 295.86C137.5 296.33 139.46 296.68 141.48 297.12C145.48 298.04 149.87 298.67 154.48 299.41C164.449 300.778 174.497 301.496 184.56 301.56C194.623 301.501 204.671 300.783 214.64 299.41C219.22 298.67 223.58 298.05 227.64 297.12C229.64 296.69 231.64 296.34 233.48 295.87L238.82 294.5C242.23 293.7 245.24 292.67 247.91 291.88C249.24 291.47 250.49 291.11 251.62 290.73L254.7 289.63L258.96 288.13L260.08 287.75C260.206 287.7 260.337 287.663 260.47 287.64L260.1 287.8L259 288.23L254.77 289.82L251.62 291C250.5 291.39 249.25 291.76 247.92 292.19C245.25 293.01 242.25 294.06 238.83 294.89L233.49 296.29C231.64 296.77 229.67 297.13 227.65 297.58C223.65 298.52 219.25 299.16 214.65 299.92C204.66 301.322 194.588 302.053 184.5 302.11C174.416 302.046 164.347 301.311 154.36 299.91C149.77 299.16 145.36 298.51 141.36 297.57C139.36 297.12 137.36 296.76 135.52 296.28L130.18 294.88C126.76 294.05 123.76 293 121.09 292.18C119.76 291.75 118.52 291.38 117.39 290.99L114.32 289.84L110.09 288.25L108.99 287.82C108.874 287.767 108.764 287.704 108.66 287.63Z" fill="#263238"/>
<g opacity="0.3">
<path d="M109 287.74C109 287.74 117.69 269.74 184.81 268.95C251.93 268.16 260.62 287.74 260.62 287.74C260.62 287.74 192.88 321.13 109 287.74Z" fill="black"/>
</g>
<path d="M170.17 146.32C170.093 146.327 170.016 146.327 169.94 146.32L169.27 146.39C168.67 146.45 167.79 146.47 166.66 146.6C163.472 146.909 160.308 147.434 157.19 148.17C141.065 151.863 126.841 161.314 117.19 174.75C112.527 181.206 108.997 188.409 106.75 196.05C106.4 197.13 106.21 197.99 106.04 198.56L105.85 199.22C105.832 199.296 105.805 199.37 105.77 199.44C105.757 199.364 105.757 199.286 105.77 199.21C105.77 199.03 105.85 198.81 105.91 198.54C106.05 197.96 106.2 197.09 106.52 195.99C107.355 192.883 108.424 189.844 109.72 186.9C113.994 177.115 120.502 168.467 128.72 161.65C136.973 154.884 146.696 150.144 157.11 147.81C160.246 147.097 163.432 146.626 166.64 146.4C167.78 146.3 168.64 146.31 169.26 146.28H169.94C170.1 146.3 170.17 146.31 170.17 146.32Z" fill="white"/>
<path d="M107.4 223.3C106.999 222.681 106.689 222.007 106.48 221.3C105.294 217.958 104.741 214.424 104.85 210.88C104.821 210.144 104.909 209.408 105.11 208.7C105.27 208.7 105.05 212.04 105.69 216.08C106.33 220.12 107.55 223.24 107.4 223.3Z" fill="white"/>
<path d="M90.57 218.13C90.57 218.13 90.34 217.97 90.03 217.59C89.5881 217.051 89.209 216.464 88.9 215.84C87.8321 213.773 87.4235 211.428 87.7292 209.121C88.035 206.815 89.0404 204.658 90.61 202.94C91.0697 202.414 91.59 201.944 92.16 201.54C92.3558 201.375 92.5792 201.247 92.82 201.16C92.88 201.24 91.98 201.85 90.89 203.16C89.4594 204.873 88.5441 206.957 88.2503 209.17C87.9564 211.382 88.2962 213.633 89.23 215.66C89.93 217.25 90.64 218.07 90.57 218.13Z" fill="white"/>
<path d="M182 114.18C181.22 114.094 180.433 114.077 179.65 114.13C178.717 114.212 177.816 114.506 177.015 114.991C176.213 115.475 175.534 116.136 175.028 116.924C174.522 117.712 174.203 118.605 174.096 119.535C173.989 120.466 174.096 121.408 174.41 122.29C174.68 123.022 175.015 123.728 175.41 124.4C175.41 124.4 175.21 124.28 174.93 123.96C174.546 123.497 174.242 122.973 174.03 122.41C173.648 121.476 173.498 120.464 173.59 119.46C173.682 118.455 174.015 117.488 174.561 116.639C175.106 115.791 175.848 115.086 176.723 114.585C177.599 114.084 178.582 113.801 179.59 113.76C180.189 113.718 180.79 113.776 181.37 113.93C181.82 114 182 114.15 182 114.18Z" fill="white"/>
<path d="M269.16 206C269.05 206.12 267.5 204.63 265.16 203.51C262.82 202.39 260.69 202.06 260.71 201.9C262.34 201.859 263.952 202.253 265.38 203.04C266.883 203.669 268.189 204.691 269.16 206Z" fill="white"/>
<path d="M132 381.07C131.954 381.01 131.914 380.947 131.88 380.88L131.55 380.29C131.25 379.72 130.85 378.96 130.33 377.99C130.07 377.49 129.79 376.93 129.47 376.33L128.53 374.33C127.85 372.88 127.09 371.23 126.34 369.33C125.96 368.4 125.56 367.42 125.14 366.41C124.72 365.4 124.36 364.3 123.95 363.19C123.09 360.98 122.36 358.55 121.51 356.03C119.94 350.93 118.4 345.28 117.05 339.28C115.7 333.28 114.72 327.49 113.92 322.22C113.12 316.95 112.6 312.22 112.28 308.16C112.09 306.16 111.97 304.34 111.87 302.74C111.77 301.14 111.68 299.74 111.65 298.64C111.62 297.54 111.59 296.69 111.56 296.05V295.38C111.549 295.304 111.549 295.226 111.56 295.15C111.571 295.226 111.571 295.304 111.56 295.38L111.62 296.05C111.62 296.68 111.73 297.55 111.8 298.63C111.87 299.71 111.97 301.13 112.11 302.72C112.25 304.31 112.38 306.13 112.6 308.13C112.96 312.13 113.6 316.89 114.35 322.13C115.1 327.37 116.19 333.13 117.51 339.13C118.83 345.13 120.38 350.77 121.91 355.86C122.76 358.38 123.47 360.8 124.31 363.01C124.71 364.13 125.09 365.2 125.47 366.23L126.63 369.17C127.35 371.04 128.09 372.7 128.75 374.17L129.65 376.17C129.94 376.78 130.22 377.34 130.47 377.85L131.59 380.19L131.87 380.8C131.931 380.881 131.975 380.972 132 381.07Z" fill="white"/>
<path d="M92.87 299.54C90.4302 299.632 87.987 299.545 85.56 299.28C83.1216 299.195 80.6922 298.937 78.29 298.51C80.7297 298.418 83.173 298.505 85.6 298.77C88.0385 298.855 90.4679 299.112 92.87 299.54Z" fill="white"/>
<path d="M55.25 278.19C53.8317 276.124 52.5586 273.962 51.44 271.72C50.1722 269.56 49.0561 267.315 48.1 265C49.5139 267.07 50.7836 269.235 51.9 271.48C53.1743 273.634 54.2938 275.877 55.25 278.19Z" fill="white"/>
<path d="M167.5 412.6C167.106 412.593 166.714 412.546 166.33 412.46C165.272 412.272 164.227 412.018 163.2 411.7C161.675 411.236 160.185 410.664 158.74 409.99C156.98 409.141 155.289 408.159 153.68 407.05C152.089 405.914 150.591 404.653 149.2 403.28C148.073 402.151 147.03 400.941 146.08 399.66C145.429 398.805 144.837 397.906 144.31 396.97C144.094 396.641 143.916 396.289 143.78 395.92C143.86 395.87 144.7 397.32 146.37 399.44C147.352 400.672 148.41 401.841 149.54 402.94C152.308 405.629 155.484 407.863 158.95 409.56C160.366 410.244 161.822 410.842 163.31 411.35C165.87 412.21 167.52 412.5 167.5 412.6Z" fill="white"/>
<path d="M182.84 366.34C182.609 366.38 182.375 366.404 182.14 366.41C181.475 366.466 180.807 366.486 180.14 366.47C177.653 366.415 175.186 366.015 172.81 365.28C171.168 364.769 169.57 364.126 168.03 363.36C166.265 362.452 164.59 361.377 163.03 360.15C159.415 357.373 156.566 353.723 154.75 349.542C152.935 345.361 152.212 340.787 152.65 336.25C152.813 334.281 153.165 332.332 153.7 330.43C154.179 328.78 154.798 327.175 155.55 325.63C156.635 323.39 158.028 321.313 159.69 319.46C160.136 318.953 160.61 318.473 161.11 318.02C161.275 317.854 161.453 317.701 161.64 317.56C161.64 317.56 160.98 318.27 159.84 319.56C158.24 321.442 156.895 323.526 155.84 325.76C154.267 329.052 153.331 332.611 153.08 336.25C152.675 340.707 153.396 345.194 155.179 349.298C156.961 353.403 159.747 356.994 163.28 359.74C164.794 360.959 166.422 362.03 168.14 362.94C169.646 363.734 171.214 364.403 172.83 364.94C175.171 365.699 177.602 366.146 180.06 366.27C181.87 366.34 182.84 366.28 182.84 366.34Z" fill="white"/>
<path d="M61.77 287.59C61.77 287.67 61 287.3 59.77 287.01C58.1241 286.65 56.418 286.667 54.7796 287.06C53.1412 287.453 51.6132 288.212 50.31 289.28C49.31 290.11 48.83 290.77 48.76 290.72C49.0344 290.058 49.4589 289.469 50 289C51.2979 287.809 52.8782 286.969 54.5914 286.56C56.3045 286.15 58.0939 286.185 59.79 286.66C60.5128 286.813 61.1904 287.132 61.77 287.59Z" fill="white"/>
<path d="M209.44 188.16C209.44 188.3 197.16 188.42 182.02 188.42C166.88 188.42 154.59 188.3 154.59 188.16C154.59 188.02 166.87 187.9 182.02 187.9C197.17 187.9 209.44 188 209.44 188.16Z" fill="white"/>
<path d="M162.64 250.69C162.49 250.732 162.336 250.756 162.18 250.76L160.84 250.88C160.26 250.93 159.55 250.97 158.72 250.99C157.89 251.01 156.95 251.05 155.91 250.99C153.82 250.99 151.34 250.84 148.59 250.55C145.614 250.204 142.659 249.693 139.74 249.02C136.827 248.321 133.956 247.46 131.14 246.44C128.846 245.6 126.596 244.642 124.4 243.57C123.4 243.13 122.63 242.67 121.9 242.28C121.17 241.89 120.55 241.54 120.05 241.28L118.9 240.58C118.764 240.504 118.636 240.414 118.52 240.31C118.52 240.31 118.68 240.31 118.95 240.49L120.15 241.1C120.66 241.38 121.29 241.71 122.03 242.1C122.77 242.49 123.61 242.89 124.56 243.31C126.44 244.19 128.73 245.13 131.31 246.06C136.917 248.07 142.734 249.439 148.65 250.14C151.37 250.46 153.84 250.64 155.91 250.69C156.91 250.75 157.91 250.69 158.72 250.69C159.53 250.69 160.25 250.69 160.83 250.69H162.17C162.326 250.664 162.484 250.664 162.64 250.69Z" fill="white"/>
<path d="M242.47 295.75C242.396 295.799 242.315 295.836 242.23 295.86L241.51 296.13L238.73 297.13C237.52 297.57 236.04 298.08 234.29 298.59C232.54 299.1 230.57 299.76 228.34 300.32L224.86 301.24C223.65 301.55 222.37 301.81 221.06 302.12C218.44 302.75 215.6 303.25 212.62 303.82C199.64 306.081 186.449 306.889 173.29 306.23C170.29 306.04 167.38 305.89 164.7 305.58C163.36 305.44 162.06 305.34 160.82 305.17L157.25 304.68C154.97 304.41 152.93 304 151.14 303.68C149.35 303.36 147.8 303.06 146.55 302.77L143.67 302.13L142.92 301.95C142.833 301.936 142.749 301.909 142.67 301.87C142.76 301.862 142.85 301.862 142.94 301.87L143.69 302L146.59 302.55C147.85 302.8 149.39 303.09 151.19 303.36C152.99 303.63 155.02 304.02 157.3 304.27L160.86 304.72C162.1 304.88 163.4 304.97 164.74 305.1C167.41 305.39 170.29 305.52 173.31 305.7C179.36 305.95 186.01 305.96 192.99 305.55C199.97 305.14 206.56 304.27 212.53 303.29C215.53 302.74 218.35 302.29 220.97 301.65C222.28 301.35 223.56 301.1 224.77 300.8L228.25 299.91C230.48 299.38 232.45 298.76 234.2 298.26C235.95 297.76 237.45 297.26 238.66 296.89L241.47 295.99L242.21 295.77L242.47 295.75Z" fill="white"/>
<path d="M336.2 107.45C336.2 106.503 336.31 105.76 336.53 105.22C336.75 104.673 337.08 104.287 337.52 104.06C337.967 103.833 338.52 103.72 339.18 103.72C339.393 103.72 339.637 103.733 339.91 103.76C340.19 103.78 340.46 103.82 340.72 103.88V106.52H339.51L339.35 105.31C339.17 105.31 339.013 105.333 338.88 105.38C338.753 105.42 338.647 105.51 338.56 105.65C338.473 105.79 338.407 106.003 338.36 106.29C338.32 106.577 338.3 106.96 338.3 107.44C338.3 107.96 338.357 108.37 338.47 108.67C338.583 108.963 338.753 109.173 338.98 109.3C339.213 109.42 339.51 109.48 339.87 109.48C340.03 109.48 340.183 109.47 340.33 109.45C340.477 109.43 340.633 109.407 340.8 109.38V110.96C340.607 111.007 340.373 111.04 340.1 111.06C339.827 111.087 339.583 111.1 339.37 111.1C338.23 111.1 337.417 110.793 336.93 110.18C336.443 109.567 336.2 108.657 336.2 107.45ZM341.499 103.8H343.449V111H341.499V103.8ZM346.52 103.8L347.93 107.91V103.8H349.83V111H347.49L346.21 107.26V111H344.31V104.83L343.9 103.8H346.52ZM350.277 103.8H355.067L354.767 105.4H352.777V106.5H354.647L354.347 108.1H352.777V109.4H355.137L354.837 111H350.827V105.17L350.277 103.8ZM358.237 103.8H360.187V111H358.237V103.8ZM362.969 110.03L362.779 111H360.689L362.129 104.7L361.899 103.72H364.919L366.489 111H364.419L364.229 110.03H362.969ZM363.169 108.48H364.019L363.599 105.86L363.169 108.48Z" fill="black"/>
</svg>
